<?xml version="1.0" standalone="no"?>
<!DOCTYPE svg PUBLIC "-//W3C//DTD SVG 20010904//EN"
 "http://www.w3.org/TR/2001/REC-SVG-20010904/DTD/svg10.dtd">
<svg version="1.0" xmlns="http://www.w3.org/2000/svg"
 width="4275.000000pt" height="2516.000000pt" viewBox="0 0 4275.000000 2516.000000"
 preserveAspectRatio="xMidYMid meet">
<metadata>
Created by potrace 1.15, written by Peter Selinger 2001-2017
</metadata>
<g transform="translate(0.000000,2516.000000) scale(0.100000,-0.100000)"
fill="#000000" stroke="none">
<path d="M12380 22467 c-3 -3 -25 -7 -50 -10 -25 -2 -52 -7 -60 -10 -8 -3 -33
-11 -55 -18 -55 -16 -149 -64 -216 -110 -141 -95 -267 -279 -316 -459 -17 -62
-18 -287 -18 -4500 0 -4308 1 -4437 19 -4495 45 -144 125 -281 218 -371 318
-310 827 -311 1137 -3 107 107 170 212 218 366 l28 88 0 4415 0 4415 -22 82
c-58 215 -185 384 -373 498 -36 21 -67 43 -68 47 -2 4 -7 6 -12 3 -4 -3 -25 2
-46 11 -76 32 -141 44 -259 50 -66 4 -122 4 -125 1z"/>
<path d="M30160 22464 c-112 -20 -247 -71 -328 -123 -105 -68 -228 -205 -284
-316 -32 -63 -67 -185 -78 -276 -8 -70 -10 -1224 -8 -4444 3 -4173 4 -4353 22
-4420 24 -94 93 -238 145 -303 23 -29 39 -58 35 -64 -4 -6 -3 -8 3 -5 6 4 29
-11 51 -32 203 -197 522 -271 797 -184 174 54 339 177 433 322 20 31 41 59 47
63 5 4 7 8 3 8 -4 0 4 24 18 54 13 29 34 91 47 137 l22 84 0 4395 c0 4310 0
4397 -19 4480 -24 105 -70 206 -129 287 -67 89 -76 99 -147 157 -103 83 -183
124 -315 162 -50 14 -267 27 -315 18z"/>
<path d="M7895 19414 c-149 -31 -276 -87 -372 -164 -33 -27 -63 -47 -67 -45
-3 3 -4 2 -1 -1 6 -9 -96 -120 -107 -116 -5 1 -7 -2 -3 -8 4 -6 -4 -27 -17
-48 -32 -52 -64 -121 -90 -200 l-23 -67 -3 -2080 c-2 -1849 -1 -2089 13 -2160
9 -44 20 -89 24 -100 5 -11 21 -46 35 -77 14 -31 26 -61 26 -67 0 -5 3 -11 8
-13 4 -1 21 -23 37 -47 76 -113 227 -233 360 -286 108 -43 180 -57 300 -58
125 0 197 12 305 54 41 16 80 29 85 31 6 1 16 7 22 14 7 7 29 22 50 35 120 73
267 264 313 408 12 36 24 73 27 81 16 44 18 290 18 2175 l0 2050 -22 82 c-65
242 -229 440 -449 540 -32 14 -61 29 -64 32 -3 3 -12 7 -20 8 -8 0 -48 8 -88
17 -67 15 -244 20 -297 10z"/>
<path d="M16771 19409 c-25 -5 -73 -18 -108 -30 -34 -11 -68 -17 -74 -13 -8 4
-9 3 -5 -4 4 -8 -3 -16 -19 -22 -86 -33 -248 -172 -312 -268 -20 -31 -44 -62
-52 -69 -9 -6 -16 -17 -16 -25 -1 -7 -16 -58 -35 -113 l-35 -100 -3 -2075 c-2
-1470 0 -2094 8 -2139 57 -331 300 -582 640 -662 83 -19 270 -15 361 9 331 88
564 353 609 693 8 59 10 686 8 2114 -4 2249 2 2063 -68 2226 -101 237 -324
420 -578 474 -79 16 -248 19 -321 4z"/>
<path d="M25665 19409 c-172 -40 -309 -115 -429 -238 -27 -28 -54 -47 -59 -44
-6 3 -7 1 -3 -5 4 -7 -6 -31 -22 -54 -47 -69 -90 -161 -114 -245 l-23 -78 0
-2095 0 -2095 23 -80 c12 -44 38 -111 57 -150 44 -89 147 -218 216 -270 30
-22 56 -42 59 -45 24 -25 196 -100 280 -120 68 -17 273 -14 354 5 126 30 243
85 313 148 13 11 27 16 35 11 7 -4 10 -3 5 1 -10 12 43 66 57 58 6 -3 8 -3 4
1 -3 4 16 37 43 73 61 80 109 174 140 273 l24 75 0 2110 0 2110 -23 80 c-13
45 -42 116 -65 158 -42 77 -166 238 -178 231 -4 -2 -12 3 -19 11 -10 13 -9 15
9 15 11 0 21 4 21 10 0 6 -9 6 -24 1 -19 -8 -34 -2 -82 29 -32 22 -71 45 -86
51 -15 6 -28 16 -28 21 0 5 -4 7 -9 4 -5 -3 -25 1 -45 9 -96 41 -324 58 -431
34z"/>
<path d="M34540 19403 c-36 -8 -72 -15 -80 -16 -8 -1 -17 -5 -20 -8 -3 -3 -32
-18 -64 -32 -83 -38 -202 -121 -245 -170 -45 -52 -55 -65 -81 -102 -79 -115
-125 -247 -140 -403 -13 -137 -13 -3905 0 -4049 11 -123 30 -193 80 -295 111
-226 318 -387 565 -439 138 -28 341 -9 477 46 32 13 58 21 58 17 0 -4 4 -2 8
3 4 6 37 30 74 54 66 42 161 132 214 201 37 48 108 202 130 280 18 62 19 156
22 2110 2 1446 0 2068 -8 2122 -31 215 -136 394 -320 542 -70 56 -234 126
-344 145 -83 15 -248 12 -326 -6z"/>
<path d="M21292 17188 c-216 -18 -433 -138 -564 -313 -33 -44 -65 -90 -71
-102 -6 -13 -14 -23 -19 -23 -5 0 -6 -5 -3 -10 4 -6 2 -16 -3 -23 -12 -16 -48
-128 -61 -195 -7 -35 -11 -363 -11 -988 0 -1018 -1 -1008 57 -1152 35 -87 111
-200 181 -270 53 -53 190 -152 210 -152 4 0 13 -5 20 -12 6 -6 17 -13 24 -14
7 -1 33 -9 58 -17 93 -31 158 -41 270 -40 137 1 234 23 355 84 92 46 125 70
210 154 98 96 164 207 207 347 l23 73 3 960 c2 667 0 980 -8 1024 -12 68 -46
178 -62 198 -5 7 -7 17 -3 23 3 5 3 10 -2 10 -4 0 -20 21 -35 48 -29 50 -148
199 -148 185 0 -4 -4 -3 -8 2 -4 6 -32 29 -62 51 -154 116 -349 169 -558 152z"/>
<path d="M3435 17183 c-62 -9 -195 -56 -250 -89 -32 -19 -60 -34 -63 -34 -9 0
-124 -102 -157 -139 -103 -116 -165 -246 -195 -406 -17 -91 -9 -1966 8 -2020
70 -218 175 -369 330 -473 153 -104 286 -146 467 -146 124 0 185 12 298 56
113 44 190 98 287 197 71 73 94 105 137 192 92 185 88 127 88 1214 0 1032 2
994 -57 1148 -94 245 -322 438 -583 492 -68 14 -234 18 -310 8z"/>
<path d="M39011 17180 c-296 -63 -524 -270 -623 -565 l-23 -70 -3 -970 c-3
-1009 -3 -1023 40 -1154 28 -87 121 -247 150 -259 4 -2 8 -7 8 -12 0 -4 20
-28 45 -52 25 -25 45 -43 45 -41 0 3 17 -9 38 -26 59 -46 190 -109 278 -132
109 -29 297 -29 405 -1 268 71 480 272 572 542 l32 95 3 960 c2 671 0 978 -8
1020 -57 307 -263 545 -556 641 -66 21 -102 26 -219 29 -77 2 -160 0 -184 -5z"/>
<path d="M19345 9548 c-260 -10 -375 -19 -375 -29 0 -5 -27 -9 -59 -9 -33 0
-63 -4 -66 -10 -3 -5 -24 -10 -45 -10 -21 0 -42 -4 -45 -10 -3 -5 -21 -10 -40
-10 -19 0 -37 -4 -40 -10 -3 -5 -24 -10 -46 -10 -21 0 -39 -4 -39 -10 0 -5
-13 -10 -29 -10 -17 0 -33 -4 -36 -10 -3 -5 -19 -10 -36 -10 -16 0 -29 -4 -29
-10 0 -5 -11 -10 -25 -10 -14 0 -25 -4 -25 -10 0 -5 -9 -10 -20 -10 -11 0 -28
-4 -38 -9 -77 -39 -106 -51 -123 -51 -10 0 -19 -4 -19 -10 0 -5 -9 -10 -20
-10 -11 0 -20 -3 -20 -7 0 -5 -25 -19 -55 -33 -30 -14 -55 -28 -55 -32 0 -5
-5 -8 -11 -8 -6 0 -30 -13 -54 -30 -24 -16 -48 -30 -54 -30 -6 0 -11 -4 -11
-10 0 -5 -7 -10 -15 -10 -8 0 -15 -4 -15 -8 0 -5 -12 -15 -27 -23 -16 -8 -33
-18 -39 -24 -6 -5 -35 -30 -64 -55 -30 -25 -64 -55 -76 -67 -13 -13 -27 -23
-31 -23 -5 0 -15 -9 -23 -21 -15 -21 -28 -36 -105 -121 -22 -24 -49 -56 -60
-72 -38 -54 -55 -81 -66 -103 -7 -13 -15 -23 -19 -23 -3 0 -19 -27 -35 -60
-16 -33 -32 -60 -37 -60 -4 0 -8 -9 -8 -20 0 -11 -4 -20 -10 -20 -5 0 -10 -6
-10 -13 0 -8 -6 -27 -14 -43 -41 -85 -89 -218 -107 -294 -39 -169 -48 -229
-58 -395 -9 -141 0 -380 18 -490 26 -156 79 -323 153 -475 28 -57 51 -110 51
-117 0 -7 5 -13 11 -13 10 0 45 -51 45 -65 0 -3 12 -17 26 -31 14 -14 25 -29
25 -34 0 -8 13 -23 116 -132 55 -59 182 -178 189 -178 4 0 12 -6 19 -12 7 -7
28 -24 46 -38 18 -14 38 -29 44 -35 6 -5 23 -16 38 -24 15 -8 37 -22 47 -33
11 -10 24 -18 30 -18 5 0 11 -3 13 -7 3 -7 55 -37 115 -67 13 -6 23 -14 23
-18 0 -5 6 -8 13 -8 18 0 67 -24 67 -32 0 -5 9 -8 20 -8 11 0 20 -4 20 -10 0
-5 9 -10 20 -10 11 0 20 -4 20 -10 0 -5 9 -10 20 -10 11 0 20 -4 20 -10 0 -5
11 -10 25 -10 14 0 25 -4 25 -10 0 -5 9 -10 20 -10 11 0 20 -4 20 -10 0 -5 9
-10 20 -10 11 0 28 -4 38 -9 29 -15 65 -29 107 -42 22 -7 44 -17 49 -21 6 -4
20 -8 33 -8 13 0 23 -4 23 -10 0 -5 13 -10 29 -10 17 0 33 -4 36 -10 3 -5 17
-10 30 -10 13 0 27 -4 30 -10 3 -5 17 -10 30 -10 13 0 27 -4 30 -10 3 -5 15
-10 26 -10 10 0 27 -4 37 -9 26 -13 86 -31 105 -31 9 0 17 -4 17 -10 0 -5 8
-10 18 -10 20 0 89 -23 98 -33 4 -4 18 -7 30 -7 13 0 26 -4 29 -10 3 -5 17
-10 30 -10 13 0 27 -4 30 -10 3 -5 15 -10 26 -10 10 0 19 -4 19 -10 0 -5 11
-10 25 -10 14 0 25 -4 25 -10 0 -5 9 -10 20 -10 11 0 20 -4 20 -10 0 -5 9 -10
20 -10 11 0 20 -4 20 -10 0 -5 7 -10 15 -10 8 0 15 -4 15 -10 0 -5 7 -10 16
-10 16 0 106 -58 112 -72 2 -4 8 -8 13 -8 14 0 99 -87 92 -94 -4 -3 -1 -6 6
-6 7 0 9 -5 6 -10 -4 -6 -1 -9 6 -8 19 4 80 -125 94 -201 18 -93 -11 -250 -56
-302 -10 -12 -19 -25 -19 -29 0 -16 -122 -130 -140 -130 -6 0 -10 -4 -10 -8 0
-5 -16 -14 -35 -22 -19 -8 -35 -17 -35 -21 0 -4 -20 -13 -45 -20 -25 -7 -45
-17 -45 -21 0 -4 -11 -8 -24 -8 -14 0 -28 -4 -31 -10 -3 -5 -19 -10 -35 -10
-16 0 -32 -4 -35 -10 -3 -5 -21 -10 -39 -10 -17 0 -36 -4 -42 -9 -5 -5 -31
-12 -59 -15 -27 -4 -86 -11 -130 -18 -170 -24 -766 -11 -990 21 -128 19 -199
30 -260 41 -33 6 -78 13 -100 16 -22 3 -49 9 -60 14 -11 5 -36 11 -55 14 -71
10 -105 18 -125 26 -11 5 -33 11 -50 14 -54 9 -90 17 -110 26 -11 5 -36 11
-55 15 -77 13 -95 18 -102 29 -26 40 -29 -34 -29 -753 0 -408 3 -746 6 -751 3
-6 28 -10 55 -10 27 0 51 -4 54 -9 5 -8 40 -13 181 -27 28 -3 59 -9 70 -14 11
-5 45 -11 75 -14 30 -3 89 -10 130 -16 105 -15 228 -29 345 -39 55 -5 116 -11
135 -15 79 -13 287 -19 655 -19 407 0 548 9 790 53 33 6 78 13 100 16 22 4 44
10 50 15 5 5 24 9 41 9 18 0 36 4 39 10 3 5 19 10 34 10 15 0 31 4 37 10 5 5
26 10 46 12 20 1 34 6 32 10 -3 4 8 8 25 8 16 0 33 5 36 10 3 6 15 10 26 10
10 0 27 4 37 9 9 5 28 13 42 19 14 5 38 15 53 21 15 6 37 11 47 11 11 0 20 5
20 10 0 6 9 10 20 10 11 0 20 5 20 10 0 6 11 10 25 10 14 0 25 5 25 10 0 6 9
10 20 10 11 0 20 5 20 10 0 6 9 10 20 10 11 0 20 5 20 10 0 6 9 10 20 10 11 0
20 5 20 10 0 6 9 10 20 10 11 0 20 4 20 8 0 5 16 14 35 22 19 8 35 17 35 22 0
4 7 8 15 8 8 0 15 5 15 10 0 6 5 10 11 10 10 0 114 68 151 99 11 9 32 26 46
38 15 13 30 23 34 23 4 0 26 18 50 40 24 22 47 44 51 48 31 27 177 185 177
191 0 3 8 14 18 23 24 24 42 46 42 54 0 4 11 21 24 38 12 17 31 47 41 66 10
19 21 37 25 40 11 8 110 210 110 226 0 8 5 14 10 14 6 0 10 11 10 24 0 14 5
28 10 31 6 3 10 16 10 29 0 12 3 26 7 30 12 12 59 190 73 276 27 166 35 263
35 430 -1 187 -16 330 -50 453 -5 18 -3 27 4 27 7 0 3 10 -9 22 -11 12 -21 30
-21 40 -2 25 -3 28 -22 72 -9 21 -17 43 -17 48 0 5 -9 28 -20 50 -11 23 -20
48 -20 55 0 7 -4 13 -10 13 -5 0 -10 9 -10 20 0 11 -4 20 -10 20 -5 0 -10 9
-10 20 0 11 -4 20 -8 20 -4 0 -21 26 -37 58 -16 31 -34 63 -41 69 -7 7 -20 31
-31 53 -10 22 -24 40 -30 40 -14 0 -18 26 -5 33 4 2 1 2 -7 0 -17 -4 -63 45
-55 59 3 4 2 7 -3 6 -4 -1 -55 45 -113 102 -58 58 -120 116 -139 130 -18 14
-42 32 -51 40 -10 8 -28 23 -39 33 -12 9 -26 17 -31 17 -6 0 -10 5 -10 10 0 6
-7 10 -15 10 -8 0 -15 5 -15 10 0 6 -7 10 -15 10 -8 0 -15 5 -15 10 0 6 -5 10
-11 10 -6 0 -23 8 -37 19 -60 42 -287 161 -309 161 -7 0 -13 5 -13 10 0 6 -7
10 -15 10 -8 0 -23 4 -33 9 -9 5 -30 14 -47 21 -16 7 -38 16 -47 21 -10 5 -27
9 -37 9 -11 0 -22 4 -25 8 -3 4 -28 14 -56 22 -28 8 -53 18 -56 22 -3 4 -16 8
-29 8 -13 0 -27 5 -30 10 -3 6 -17 10 -30 10 -13 0 -27 5 -30 10 -3 6 -19 10
-35 10 -16 0 -32 5 -35 10 -3 6 -17 10 -30 10 -13 0 -27 5 -30 10 -3 6 -17 10
-30 10 -13 0 -30 6 -37 13 -6 8 -22 12 -34 9 -12 -2 -25 1 -28 7 -4 6 -18 11
-31 11 -13 0 -27 5 -30 10 -3 6 -17 10 -30 10 -13 0 -27 5 -30 10 -3 6 -17 10
-30 10 -13 0 -27 5 -30 10 -3 6 -17 10 -30 10 -13 0 -27 5 -30 10 -3 6 -15 10
-26 10 -10 0 -27 4 -37 9 -9 5 -28 13 -42 19 -53 21 -165 77 -168 84 -2 5 -8
8 -13 8 -18 0 -109 65 -115 83 -3 9 -10 17 -15 17 -15 0 -72 61 -97 103 -36
61 -62 155 -62 222 0 34 3 65 7 69 4 3 8 17 10 29 5 35 24 77 36 77 6 0 8 3 4
6 -7 7 2 18 63 83 61 64 161 131 195 131 8 0 15 5 15 10 0 6 9 10 19 10 11 0
23 5 26 10 3 6 17 10 30 10 13 0 27 5 30 10 3 6 19 10 34 10 15 0 31 4 37 9
10 10 66 19 159 27 33 3 69 9 80 15 13 6 114 8 275 5 239 -4 335 -11 505 -35
39 -6 100 -14 136 -19 37 -5 72 -13 80 -18 7 -4 26 -7 42 -6 16 2 35 -2 41 -7
7 -6 30 -11 51 -12 22 -1 45 -6 50 -10 10 -6 45 -13 130 -25 22 -4 44 -10 50
-15 5 -5 23 -9 40 -9 17 0 35 -4 41 -9 5 -5 28 -11 52 -14 l42 -5 0 690 c0
773 6 717 -72 718 -20 0 -39 4 -42 9 -3 5 -23 11 -43 15 -21 3 -56 8 -78 11
-22 4 -49 10 -60 15 -19 8 -39 12 -155 26 -25 3 -49 10 -55 15 -5 5 -33 9 -63
9 -29 0 -62 5 -72 10 -10 6 -43 12 -72 15 -29 2 -96 9 -148 15 -288 34 -629
49 -905 38z"/>
<path d="M9180 9540 c-14 -4 -57 -8 -95 -9 -39 -1 -75 -5 -80 -10 -6 -5 -35
-12 -65 -15 -96 -9 -144 -17 -165 -26 -11 -5 -38 -11 -60 -15 -81 -12 -105
-17 -111 -26 -3 -5 -20 -9 -39 -9 -19 0 -37 -4 -40 -10 -3 -5 -19 -10 -35 -10
-16 0 -32 -4 -35 -10 -3 -5 -17 -10 -30 -10 -13 0 -27 -4 -30 -10 -3 -5 -17
-10 -31 -10 -13 0 -33 -4 -44 -10 -11 -5 -29 -14 -40 -20 -11 -5 -27 -10 -35
-10 -8 0 -23 -4 -33 -9 -9 -5 -30 -14 -47 -21 -16 -7 -38 -16 -47 -21 -10 -5
-25 -9 -33 -9 -8 0 -15 -4 -15 -10 0 -5 -11 -10 -25 -10 -14 0 -25 -3 -25 -8
0 -4 -15 -13 -32 -20 -61 -25 -163 -77 -166 -84 -2 -5 -12 -8 -23 -8 -10 0
-19 -4 -19 -8 0 -5 -16 -14 -35 -22 -19 -8 -35 -17 -35 -22 0 -4 -6 -8 -14 -8
-8 0 -16 -3 -18 -7 -4 -10 -57 -42 -80 -50 -10 -3 -18 -9 -18 -14 0 -5 -5 -9
-10 -9 -6 0 -20 -9 -32 -20 -12 -11 -34 -26 -50 -32 -15 -7 -28 -16 -28 -20 0
-5 -6 -8 -13 -8 -7 0 -19 -9 -27 -20 -8 -11 -18 -20 -22 -20 -7 0 -21 -10 -71
-54 -12 -10 -38 -30 -57 -45 -19 -14 -49 -39 -67 -56 -112 -106 -134 -125
-143 -125 -5 0 -10 -4 -10 -9 0 -5 -21 -32 -47 -59 -66 -69 -102 -110 -143
-162 -19 -25 -47 -57 -62 -72 -16 -14 -28 -30 -28 -35 0 -4 -11 -21 -25 -37
-14 -16 -25 -32 -25 -36 0 -6 -9 -18 -49 -66 -5 -6 -17 -26 -26 -45 -10 -19
-21 -36 -25 -39 -4 -3 -15 -20 -24 -37 -17 -34 -59 -100 -76 -120 -6 -7 -10
-15 -9 -18 2 -12 -24 -65 -32 -65 -5 0 -9 -6 -9 -13 0 -18 -24 -67 -32 -67 -5
0 -8 -7 -8 -15 0 -8 -13 -43 -30 -77 -16 -34 -30 -67 -30 -75 0 -7 -4 -13 -8
-13 -5 0 -15 -22 -22 -50 -7 -27 -18 -50 -22 -50 -5 0 -7 -4 -4 -8 3 -5 -2
-21 -10 -36 -7 -16 -14 -36 -14 -45 0 -10 -3 -21 -7 -25 -11 -11 -82 -279
-102 -386 -7 -36 -16 -83 -21 -105 -9 -40 -21 -134 -40 -301 -5 -50 -10 -137
-10 -195 0 -77 -3 -100 -11 -89 -9 12 -9 11 -3 -5 4 -11 11 -94 15 -185 10
-211 22 -319 58 -535 20 -116 68 -306 111 -435 12 -36 23 -72 26 -80 12 -47
30 -90 36 -90 5 0 8 -6 8 -13 0 -7 9 -32 20 -55 11 -22 20 -45 20 -50 0 -11
140 -294 149 -302 12 -10 71 -112 71 -121 0 -6 11 -21 25 -35 14 -14 25 -29
25 -34 0 -5 6 -15 13 -22 7 -7 33 -42 59 -78 25 -36 54 -75 64 -87 11 -12 30
-36 44 -54 14 -18 35 -43 48 -56 13 -13 21 -23 19 -23 -7 0 157 -163 253 -252
45 -43 87 -78 92 -78 5 0 6 -4 3 -10 -3 -5 0 -10 7 -10 7 0 31 -16 53 -35 22
-20 52 -43 68 -52 15 -10 27 -21 27 -25 0 -4 7 -8 15 -8 8 0 15 -4 15 -10 0
-5 5 -10 11 -10 7 0 19 -8 28 -17 18 -20 67 -52 94 -60 9 -3 17 -9 17 -14 0
-5 6 -9 13 -9 7 0 22 -8 33 -17 17 -16 69 -46 131 -77 13 -6 23 -14 23 -18 0
-5 9 -8 20 -8 11 0 20 -4 20 -8 0 -5 16 -14 35 -22 19 -7 32 -16 30 -20 -2 -3
8 -7 23 -8 15 -1 29 -7 30 -12 2 -6 12 -10 23 -10 11 0 19 -7 19 -16 0 -10 6
-14 15 -11 8 4 17 2 20 -3 4 -6 17 -10 30 -10 13 0 27 -4 30 -10 3 -5 15 -10
26 -10 10 0 19 -4 19 -10 0 -5 11 -10 25 -10 14 0 25 -4 25 -10 0 -5 9 -10 20
-10 11 0 29 -4 40 -10 11 -5 29 -14 40 -20 11 -5 29 -10 39 -10 11 0 23 -4 26
-10 3 -5 17 -10 30 -10 13 0 27 -4 30 -10 3 -5 19 -10 35 -10 16 0 32 -4 35
-10 3 -5 17 -10 30 -10 13 0 26 -4 29 -9 3 -5 23 -11 43 -14 71 -11 108 -20
120 -29 6 -5 31 -11 55 -13 94 -10 138 -17 138 -25 0 -7 63 -15 225 -26 39 -3
79 -9 90 -15 13 -6 145 -8 365 -5 328 4 453 12 635 36 44 6 106 13 138 16 31
3 57 9 57 14 0 4 24 10 53 14 117 14 142 18 152 27 5 5 26 9 46 9 21 0 40 4
43 9 3 5 20 11 38 14 36 6 90 19 153 37 22 6 51 14 65 17 14 2 32 7 40 10 21
9 28 10 45 12 13 1 15 106 15 881 0 580 -3 880 -10 880 -5 0 -10 -4 -10 -10 0
-5 -9 -10 -19 -10 -11 0 -21 -3 -23 -7 -4 -11 -87 -53 -104 -53 -8 0 -14 -4
-14 -10 0 -5 -9 -10 -19 -10 -11 0 -23 -4 -26 -10 -3 -6 -17 -10 -31 -10 -13
0 -24 -4 -24 -10 0 -5 -7 -10 -15 -10 -8 0 -24 -5 -35 -10 -11 -6 -29 -15 -40
-20 -11 -5 -27 -10 -35 -10 -8 0 -23 -4 -33 -9 -9 -5 -37 -14 -62 -21 -25 -7
-53 -16 -62 -21 -10 -5 -29 -9 -42 -9 -14 0 -28 -4 -31 -10 -3 -5 -24 -10 -45
-10 -21 0 -42 -5 -45 -10 -3 -5 -24 -10 -45 -10 -21 0 -42 -4 -45 -10 -3 -5
-28 -10 -54 -10 -26 0 -51 -4 -57 -9 -16 -16 -147 -23 -429 -23 -276 0 -393 7
-409 23 -6 5 -27 9 -47 9 -21 0 -40 4 -43 9 -3 5 -23 11 -43 14 -36 4 -118 30
-155 48 -10 5 -27 9 -37 9 -11 0 -23 5 -26 10 -3 6 -15 10 -26 10 -10 0 -19 5
-19 10 0 6 -9 10 -20 10 -11 0 -20 4 -20 9 0 5 -13 11 -29 14 -16 3 -36 13
-44 22 -9 8 -23 15 -31 15 -9 0 -16 4 -16 8 0 5 -16 14 -35 22 -19 8 -35 17
-35 22 0 4 -7 8 -15 8 -8 0 -15 5 -15 10 0 6 -5 10 -11 10 -6 0 -16 6 -24 13
-30 28 -56 47 -65 47 -6 0 -10 4 -10 8 0 5 -11 15 -25 22 -13 7 -22 17 -19 22
3 4 0 8 -6 8 -15 0 -160 146 -153 154 4 3 -1 6 -10 6 -9 0 -17 4 -17 8 0 9
-22 39 -67 90 -18 20 -33 40 -33 44 0 5 -5 14 -10 21 -20 23 -59 87 -54 87 2
0 -4 10 -16 22 -11 12 -20 25 -20 29 0 4 -18 46 -41 93 -22 47 -41 94 -42 105
-1 12 -4 21 -7 21 -5 0 -27 64 -34 101 -2 8 -6 21 -9 29 -3 8 -8 29 -10 45 -3
17 -12 59 -20 95 -8 36 -21 130 -27 210 -11 126 -11 164 4 295 9 83 21 173 26
200 6 28 13 67 16 88 4 20 10 37 13 37 4 0 7 8 8 19 4 45 85 256 95 246 2 -3
5 1 5 8 0 20 44 107 54 107 5 0 9 9 9 20 0 11 5 20 10 20 6 0 10 5 10 11 0 18
86 140 137 196 27 29 54 61 62 72 8 10 20 17 27 14 6 -2 11 2 11 9 -1 7 0 14
3 15 3 0 30 26 62 56 31 30 70 63 87 73 17 10 31 22 31 26 0 4 7 8 15 8 8 0
15 5 15 10 0 6 7 10 15 10 8 0 15 4 15 8 0 5 12 15 28 23 15 8 29 16 32 19 3
3 23 14 45 26 22 11 50 26 63 32 52 28 63 32 77 32 8 0 15 5 15 10 0 6 7 10
15 10 8 0 24 5 35 10 11 6 29 15 40 20 11 6 29 10 39 10 11 0 23 5 26 10 3 6
17 10 30 10 13 0 27 5 30 10 3 6 21 10 39 10 17 0 36 4 41 9 6 6 31 11 57 12
26 2 45 6 42 10 -8 14 130 21 416 22 269 0 354 -5 500 -33 30 -6 72 -14 93
-17 20 -3 40 -9 43 -14 3 -5 23 -9 44 -9 21 0 42 -4 45 -10 3 -5 19 -10 35
-10 16 0 32 -4 35 -10 3 -5 17 -10 30 -10 13 0 27 -4 30 -10 3 -5 20 -10 36
-10 18 0 28 -4 24 -10 -4 -6 5 -10 20 -10 14 0 34 -4 45 -10 11 -5 29 -14 40
-20 11 -5 29 -10 40 -10 11 0 20 -4 20 -10 0 -5 7 -10 15 -10 8 0 23 -4 33 -9
9 -5 40 -19 67 -32 28 -13 52 -27 53 -31 2 -5 12 -8 22 -8 10 0 20 -4 22 -8 2
-5 15 -12 31 -16 l27 -6 0 875 0 875 -24 0 c-14 0 -28 5 -31 10 -3 6 -19 10
-36 10 -16 0 -29 5 -29 10 0 6 -16 10 -36 10 -21 0 -33 4 -29 10 4 6 -10 10
-34 10 -22 0 -43 5 -46 10 -3 6 -22 10 -41 10 -19 0 -34 5 -34 10 0 6 -20 10
-44 10 -25 0 -48 5 -51 10 -3 6 -24 10 -45 10 -21 0 -42 5 -45 10 -3 6 -28 10
-54 10 -26 0 -51 4 -56 9 -6 5 -35 12 -65 15 -30 4 -89 11 -130 16 -41 6 -120
15 -175 21 -124 13 -831 20 -865 9z"/>
<path d="M26216 9543 c-4 -5 -44 -11 -89 -15 -45 -4 -111 -12 -147 -18 -36 -6
-87 -13 -115 -16 -27 -3 -54 -10 -59 -15 -6 -5 -27 -9 -47 -9 -21 0 -41 -4
-44 -10 -3 -5 -24 -10 -45 -10 -21 0 -42 -4 -45 -10 -3 -5 -19 -10 -35 -10
-16 0 -32 -4 -35 -10 -3 -5 -19 -10 -35 -10 -16 0 -32 -4 -35 -10 -9 -14 -52
-12 -58 3 -3 6 -6 2 -6 -10 -1 -17 -7 -23 -25 -23 -14 0 -28 -4 -31 -10 -3 -5
-17 -10 -30 -10 -13 0 -27 -4 -30 -10 -3 -5 -15 -10 -26 -10 -10 0 -29 -5 -42
-12 -47 -24 -57 -28 -72 -28 -8 0 -15 -4 -15 -10 0 -5 -7 -10 -15 -10 -8 0
-24 -4 -35 -10 -11 -5 -29 -14 -40 -20 -11 -5 -27 -10 -35 -10 -8 0 -15 -4
-15 -10 0 -5 -9 -10 -20 -10 -11 0 -20 -4 -20 -10 0 -5 -6 -10 -13 -10 -18 0
-67 -24 -67 -32 0 -5 -9 -8 -20 -8 -11 0 -20 -3 -20 -8 0 -4 -17 -15 -37 -24
-38 -17 -94 -49 -103 -58 -3 -3 -15 -11 -27 -17 -13 -7 -33 -19 -45 -25 -13
-7 -25 -16 -28 -19 -9 -10 -98 -69 -105 -69 -4 0 -12 -6 -20 -12 -20 -20 -47
-41 -85 -68 -49 -34 -71 -53 -181 -150 -90 -80 -174 -165 -256 -256 -60 -68
-74 -83 -123 -145 -14 -18 -35 -42 -47 -55 -13 -13 -23 -27 -23 -32 0 -4 -9
-18 -20 -30 -12 -12 -18 -22 -15 -22 4 0 0 -6 -7 -14 -7 -7 -20 -24 -28 -36
-8 -12 -21 -29 -28 -36 -7 -8 -10 -14 -5 -14 4 0 3 -4 -3 -8 -6 -4 -22 -27
-34 -52 -12 -25 -26 -47 -30 -50 -3 -3 -32 -57 -64 -120 -32 -63 -65 -122 -72
-131 -8 -8 -14 -20 -14 -26 0 -16 -50 -122 -61 -128 -5 -4 -7 -10 -4 -15 3 -5
-3 -28 -14 -52 -38 -83 -106 -302 -142 -458 -49 -213 -65 -327 -82 -610 -18
-309 2 -652 53 -895 5 -22 14 -67 20 -100 12 -60 33 -141 71 -269 12 -37 22
-73 23 -80 1 -6 9 -27 17 -46 8 -19 21 -55 29 -80 8 -25 20 -56 27 -69 6 -14
10 -28 7 -33 -3 -4 0 -8 5 -8 6 0 11 -6 11 -13 0 -16 136 -287 173 -344 15
-24 27 -47 27 -53 0 -5 5 -10 10 -10 6 0 10 -7 10 -15 0 -8 9 -25 20 -37 10
-13 18 -25 17 -28 -1 -3 10 -19 26 -35 15 -17 30 -38 33 -47 3 -10 9 -18 14
-18 5 0 11 -9 15 -19 3 -11 18 -33 33 -49 15 -17 34 -40 42 -52 8 -13 25 -33
37 -45 12 -13 19 -26 16 -29 -4 -3 -1 -6 6 -6 7 0 9 -5 5 -12 -4 -6 -3 -8 3
-5 6 4 19 -5 29 -19 11 -15 36 -44 57 -66 20 -22 37 -44 37 -49 0 -5 5 -9 10
-9 6 0 39 -28 73 -62 58 -58 132 -124 195 -173 14 -11 41 -35 60 -52 18 -18
36 -33 38 -33 8 0 127 -82 148 -102 11 -10 26 -18 33 -18 7 0 13 -4 13 -10 0
-5 7 -10 15 -10 8 0 15 -4 15 -10 0 -5 7 -10 15 -10 8 0 15 -3 15 -7 0 -5 23
-19 50 -32 28 -14 50 -27 50 -30 0 -4 25 -17 55 -31 30 -14 55 -28 55 -32 0
-5 6 -8 13 -8 18 0 67 -24 67 -32 0 -5 7 -8 15 -8 8 0 30 -9 50 -20 20 -11 42
-20 50 -20 8 0 15 -4 15 -10 0 -5 9 -10 20 -10 11 0 20 -4 20 -10 0 -5 11 -10
24 -10 14 0 28 -4 31 -10 3 -5 15 -10 26 -10 10 0 19 -4 19 -10 0 -5 11 -10
24 -10 14 0 27 -4 30 -8 3 -4 28 -14 56 -22 28 -8 53 -18 56 -22 3 -4 16 -8
29 -8 13 0 27 -4 30 -10 3 -5 19 -10 35 -10 16 0 32 -5 35 -10 3 -6 19 -10 35
-10 16 0 31 -4 34 -9 3 -5 20 -11 38 -14 18 -4 49 -9 68 -12 19 -4 44 -10 55
-15 11 -5 40 -11 65 -15 25 -4 68 -11 95 -16 219 -43 350 -53 700 -53 303 0
428 7 630 33 39 5 95 13 125 16 30 4 64 10 75 15 11 5 40 11 65 14 79 9 124
17 145 26 20 9 56 16 128 27 20 3 40 9 43 14 3 5 20 9 39 9 19 0 37 4 40 10 3
5 19 10 35 10 16 0 32 5 35 10 3 6 19 10 35 10 16 0 32 5 35 10 3 5 17 10 30
10 12 0 26 7 29 16 3 9 6 405 6 880 l0 863 -23 -8 c-12 -5 -39 -18 -60 -30
-21 -11 -44 -21 -52 -21 -8 0 -15 -4 -15 -10 0 -5 -9 -10 -20 -10 -11 0 -20
-4 -20 -10 0 -5 -7 -10 -15 -10 -8 0 -23 -4 -33 -9 -9 -5 -29 -14 -44 -20 -16
-6 -40 -16 -55 -22 -16 -6 -36 -15 -45 -20 -10 -5 -27 -9 -37 -9 -11 0 -23 -4
-26 -10 -3 -5 -22 -10 -41 -10 -19 0 -34 -4 -34 -10 0 -5 -13 -10 -30 -10 -16
0 -30 -4 -30 -10 0 -5 -13 -10 -29 -10 -17 0 -33 -4 -36 -10 -3 -5 -24 -10
-45 -10 -21 0 -41 -4 -44 -9 -6 -9 -44 -16 -136 -27 -25 -3 -54 -9 -65 -14
-37 -16 -159 -23 -430 -22 -269 0 -405 7 -405 21 0 4 -19 8 -42 10 -24 1 -47
6 -52 12 -6 5 -25 9 -42 9 -18 0 -36 5 -39 10 -3 6 -17 10 -31 10 -13 0 -33 5
-44 10 -11 6 -29 15 -40 20 -11 6 -29 10 -40 10 -11 0 -20 5 -20 10 0 6 -6 10
-14 10 -8 0 -31 9 -53 19 -21 11 -53 25 -70 33 -18 7 -33 16 -33 20 0 5 -9 8
-20 8 -11 0 -20 5 -20 10 0 6 -7 10 -15 10 -8 0 -15 4 -15 8 0 5 -16 14 -35
22 -19 8 -35 17 -35 22 0 4 -7 8 -15 8 -8 0 -15 4 -15 8 0 4 -12 15 -27 24
-84 51 -352 317 -353 350 0 5 -10 19 -22 33 -32 37 -134 215 -122 215 3 0 -2
7 -10 16 -9 8 -19 27 -23 42 -3 15 -9 29 -12 32 -7 5 -62 176 -80 248 -6 23
-15 59 -20 80 -20 78 -25 153 -25 362 0 201 7 292 34 400 6 25 13 59 16 75 3
17 8 37 11 45 3 8 8 24 10 34 2 11 7 24 12 30 4 6 16 37 25 69 10 31 22 57 27
57 5 0 9 7 9 15 0 15 67 156 79 165 3 3 17 25 30 50 14 25 31 51 38 58 7 7 13
16 13 20 0 11 129 160 180 208 94 88 127 116 153 130 15 8 27 19 27 24 0 6 7
10 15 10 8 0 15 5 15 10 0 6 7 10 15 10 8 0 15 5 15 10 0 6 7 10 15 10 8 0 15
4 15 9 0 5 8 11 18 15 18 6 62 30 106 59 14 9 34 17 46 17 11 0 20 3 20 8 0 4
15 13 33 20 68 28 83 35 99 43 10 5 27 9 37 9 11 0 23 5 26 10 3 6 17 10 30
10 13 0 26 4 29 9 3 5 23 11 43 14 72 11 108 18 128 27 37 17 139 22 425 23
297 0 395 -8 595 -53 28 -6 67 -14 88 -17 20 -3 40 -9 43 -14 3 -5 18 -9 34
-9 16 0 32 -4 35 -10 3 -5 17 -10 30 -10 13 0 27 -4 30 -10 3 -5 19 -10 36
-10 16 0 29 -4 29 -10 0 -5 11 -10 24 -10 14 0 28 -4 31 -10 3 -5 15 -10 26
-10 10 0 19 -4 19 -10 0 -5 14 -10 30 -10 17 0 30 -4 30 -10 0 -5 9 -10 20
-10 11 0 20 -4 20 -10 0 -5 12 -10 26 -10 14 0 23 -4 19 -10 -3 -5 2 -10 12
-10 23 0 73 -22 73 -32 0 -5 6 -8 13 -8 8 0 28 -7 45 -16 18 -8 36 -13 42 -9
11 7 15 1701 4 1729 -3 9 -17 16 -30 16 -13 0 -24 5 -24 10 0 6 -13 10 -29 10
-17 0 -33 5 -36 10 -3 6 -19 10 -35 10 -16 0 -32 5 -35 10 -3 6 -21 10 -40 10
-19 0 -37 5 -40 10 -3 6 -21 10 -40 10 -19 0 -37 5 -40 10 -3 6 -24 10 -45 10
-21 0 -42 5 -45 10 -3 6 -24 10 -45 10 -21 0 -42 5 -45 10 -3 6 -28 10 -54 10
-26 0 -51 4 -56 9 -10 9 -60 16 -180 27 -33 3 -69 9 -80 14 -11 5 -63 12 -115
15 -157 10 -846 16 -854 8z"/>
<path d="M32846 9543 c-4 -5 -44 -11 -89 -15 -148 -13 -192 -20 -201 -29 -6
-5 -31 -9 -57 -9 -26 0 -51 -4 -54 -10 -3 -5 -24 -10 -45 -10 -21 0 -42 -4
-45 -10 -3 -5 -21 -10 -40 -10 -19 0 -37 -4 -40 -10 -3 -5 -19 -10 -35 -10
-16 0 -32 -4 -35 -10 -3 -5 -22 -10 -41 -10 -19 0 -34 -4 -34 -10 0 -5 -11
-10 -24 -10 -14 0 -28 -4 -31 -10 -3 -5 -17 -10 -30 -10 -13 0 -27 -4 -30 -10
-3 -5 -15 -10 -26 -10 -10 0 -27 -4 -37 -9 -9 -5 -28 -13 -42 -18 -14 -6 -36
-15 -50 -20 -14 -6 -45 -20 -68 -32 -24 -11 -52 -21 -63 -21 -10 0 -19 -4 -19
-10 0 -5 -9 -10 -20 -10 -11 0 -20 -4 -20 -10 0 -5 -9 -10 -20 -10 -11 0 -20
-4 -20 -10 0 -5 -9 -10 -20 -10 -11 0 -20 -4 -20 -10 0 -5 -9 -10 -20 -10 -11
0 -20 -4 -20 -10 0 -5 -9 -10 -20 -10 -11 0 -20 -4 -20 -8 0 -5 -16 -14 -35
-22 -19 -8 -35 -17 -35 -22 0 -4 -9 -8 -20 -8 -11 0 -20 -4 -20 -10 0 -5 -7
-10 -15 -10 -8 0 -15 -4 -15 -10 0 -5 -7 -10 -15 -10 -8 0 -15 -4 -15 -10 0
-5 -7 -10 -15 -10 -8 0 -15 -4 -15 -10 0 -5 -9 -10 -20 -10 -11 0 -20 -3 -20
-8 0 -4 -18 -18 -40 -32 -22 -14 -40 -28 -40 -32 0 -5 -7 -8 -15 -8 -8 0 -15
-4 -15 -10 0 -5 -5 -10 -11 -10 -6 0 -16 -6 -23 -12 -7 -7 -28 -24 -46 -38
-18 -14 -41 -32 -50 -40 -52 -44 -61 -50 -66 -50 -3 0 -19 -13 -34 -30 -15
-16 -31 -30 -34 -30 -13 0 -302 -299 -356 -370 -19 -25 -45 -56 -57 -70 -13
-14 -23 -28 -23 -31 0 -3 -9 -17 -20 -30 -29 -35 -32 -40 -65 -89 -16 -25 -34
-49 -38 -55 -12 -14 -50 -80 -83 -140 -15 -27 -30 -52 -34 -55 -11 -8 -150
-290 -150 -305 0 -7 -3 -15 -7 -17 -11 -4 -144 -380 -144 -405 0 -2 -5 -17
-11 -35 -36 -117 -72 -310 -100 -543 -17 -141 -17 -575 0 -720 17 -155 44
-327 55 -355 3 -8 8 -31 11 -50 6 -38 19 -95 35 -150 5 -19 13 -46 16 -60 4
-14 10 -34 15 -45 9 -22 44 -137 45 -146 0 -3 10 -28 21 -55 44 -100 59 -139
57 -146 -2 -5 2 -8 7 -8 6 0 10 -6 10 -13 0 -15 76 -175 123 -259 6 -13 15
-25 18 -28 4 -3 17 -25 29 -50 12 -25 26 -47 30 -50 4 -3 18 -25 30 -50 12
-25 26 -47 29 -50 4 -3 27 -34 52 -70 24 -36 52 -74 61 -84 10 -11 30 -38 45
-60 16 -23 37 -51 48 -62 79 -85 139 -159 137 -168 -2 -6 -1 -8 3 -4 4 4 44
-30 90 -75 45 -45 102 -98 125 -117 23 -19 58 -50 76 -67 18 -18 38 -33 44
-33 5 0 10 -4 10 -8 0 -4 12 -15 28 -24 15 -9 38 -27 52 -40 14 -13 37 -29 53
-37 15 -8 27 -18 27 -23 0 -4 6 -8 13 -8 6 -1 28 -14 47 -30 19 -17 40 -30 47
-30 7 0 13 -4 13 -10 0 -5 6 -10 13 -10 7 0 23 -9 35 -20 12 -11 28 -20 37
-20 8 0 15 -4 15 -8 0 -5 16 -14 35 -22 19 -8 35 -17 35 -20 0 -3 16 -12 35
-20 19 -8 35 -17 35 -22 0 -4 9 -8 20 -8 11 0 20 -4 20 -10 0 -5 9 -10 20 -10
11 0 20 -4 20 -10 0 -5 6 -10 14 -10 12 0 44 -14 118 -51 10 -5 25 -9 33 -9 8
0 15 -4 15 -10 0 -5 8 -10 18 -10 10 0 22 -4 28 -8 5 -4 27 -14 49 -21 22 -7
51 -17 65 -23 60 -25 132 -48 153 -48 9 0 17 -4 17 -9 0 -5 16 -12 35 -15 19
-3 51 -9 70 -12 19 -3 38 -10 41 -15 3 -5 20 -9 38 -9 17 0 36 -4 41 -9 6 -5
28 -11 50 -15 22 -3 67 -10 100 -16 260 -46 352 -53 695 -53 306 0 425 7 580
33 36 6 88 13 115 16 28 3 54 10 60 15 5 5 26 9 46 9 21 0 41 5 44 10 3 6 21
10 40 10 19 0 36 4 39 9 3 5 23 12 43 15 92 16 103 19 103 27 0 5 13 9 29 9
17 0 33 4 36 10 3 5 17 10 30 10 13 0 27 5 30 10 3 6 17 10 31 10 13 0 24 5
24 10 0 6 14 10 30 10 17 0 30 5 30 10 0 6 7 10 15 10 8 0 23 4 33 9 9 5 40
19 67 31 28 12 67 31 88 41 22 11 45 19 53 19 8 0 14 5 14 10 0 6 9 10 20 10
11 0 20 5 20 10 0 6 9 10 20 10 11 0 20 3 20 8 0 7 48 32 62 32 5 0 18 9 30
20 12 11 28 20 35 20 7 0 13 4 13 8 0 5 16 14 35 22 19 8 35 17 35 22 0 4 7 8
15 8 8 0 15 5 15 10 0 6 7 10 15 10 8 0 15 5 15 10 0 6 7 10 15 10 8 0 15 5
15 10 0 6 6 10 13 10 7 0 23 9 35 20 12 11 26 20 32 20 5 0 10 5 10 10 0 6 4
10 10 10 5 0 19 8 31 17 11 10 29 25 39 33 9 8 32 26 50 40 18 14 42 33 54 43
11 10 43 37 70 60 96 82 298 290 366 377 19 25 40 51 47 58 7 7 13 16 13 20 0
4 16 24 36 44 19 21 33 38 29 38 -5 0 42 68 73 106 5 5 15 21 22 35 7 13 16
26 19 29 3 3 17 25 30 50 14 25 27 47 30 50 4 3 18 26 31 53 14 26 28 47 32
47 5 0 8 6 8 14 0 12 46 112 100 219 11 22 20 43 20 48 0 6 9 29 20 51 11 23
20 48 20 55 0 7 4 13 8 13 4 0 8 9 9 19 1 10 19 72 41 137 22 66 50 160 61
209 12 50 26 106 31 125 5 19 14 69 20 110 7 41 16 95 20 120 28 143 35 689
12 885 -7 61 -16 133 -19 160 -3 28 -9 58 -14 67 -5 9 -9 29 -9 44 0 15 -4 41
-10 58 -5 17 -19 72 -31 121 -12 50 -34 130 -50 179 -16 49 -29 96 -29 105 0
9 -4 21 -9 27 -10 10 -52 123 -54 142 0 6 -4 12 -9 12 -4 0 -8 7 -8 15 0 17
-178 377 -190 385 -4 3 -17 25 -30 49 -12 24 -26 49 -31 55 -5 6 -24 34 -42
61 -17 28 -37 56 -44 63 -6 6 -15 21 -18 32 -3 11 -10 20 -15 20 -5 0 -11 8
-15 19 -3 10 -22 36 -43 58 -20 22 -44 50 -52 62 -25 38 -99 118 -226 245
-137 138 -176 173 -259 236 -33 25 -65 50 -71 55 -36 32 -55 45 -64 45 -6 0
-10 3 -10 8 0 4 -25 23 -55 42 -30 19 -55 38 -55 41 0 3 -16 11 -35 19 -19 7
-32 17 -29 22 3 4 -4 8 -15 8 -12 0 -21 4 -21 8 0 5 -16 14 -35 22 -19 8 -35
16 -35 19 0 4 -15 12 -32 20 -18 8 -35 17 -38 20 -5 7 -153 79 -230 113 -25
11 -53 24 -62 29 -10 5 -25 9 -33 9 -8 0 -15 5 -15 10 0 6 -9 10 -19 10 -11 0
-23 5 -26 10 -3 6 -17 10 -30 10 -13 0 -27 5 -30 10 -3 6 -17 10 -30 10 -13 0
-27 5 -30 10 -3 6 -17 10 -30 10 -13 0 -27 5 -30 10 -3 6 -16 10 -29 10 -12 0
-26 4 -31 9 -6 6 -22 11 -37 13 -15 2 -30 7 -34 11 -4 4 -20 7 -35 7 -15 0
-31 5 -34 10 -3 6 -22 10 -41 10 -19 0 -34 5 -34 10 0 6 -19 10 -43 10 -24 0
-47 4 -52 9 -6 5 -30 12 -55 15 -25 3 -74 10 -110 16 -36 6 -103 16 -150 21
-102 13 -803 23 -814 12z m639 -1668 c33 -4 64 -11 70 -16 5 -5 24 -9 41 -9
18 0 36 -4 39 -10 3 -5 21 -10 40 -10 19 0 37 -4 40 -10 3 -5 15 -10 26 -10
10 0 28 -4 39 -10 11 -5 29 -14 40 -20 11 -5 27 -10 35 -10 14 0 53 -18 65
-30 3 -3 19 -11 35 -19 77 -35 120 -60 118 -69 -1 -6 7 -8 17 -5 11 3 20 0 20
-6 0 -6 7 -11 15 -11 8 0 15 -4 15 -10 0 -5 6 -10 13 -10 6 0 24 -10 38 -23
15 -12 41 -33 60 -47 18 -14 53 -44 78 -67 24 -24 46 -43 48 -43 6 0 117 -121
127 -139 6 -9 22 -29 38 -46 15 -16 28 -33 28 -37 0 -5 10 -19 23 -34 39 -44
137 -223 137 -249 0 -8 5 -15 10 -15 6 0 10 -6 10 -13 0 -7 9 -32 20 -55 11
-23 21 -53 22 -67 1 -14 5 -25 8 -25 3 0 11 -21 18 -47 7 -27 17 -61 21 -78 9
-30 18 -81 41 -220 13 -77 8 -358 -8 -460 -22 -136 -51 -254 -83 -330 -7 -16
-13 -35 -14 -41 -2 -5 -12 -30 -24 -54 -11 -24 -21 -50 -21 -57 0 -7 -4 -13
-10 -13 -5 0 -10 -8 -10 -17 0 -16 -101 -192 -129 -225 -37 -43 -51 -62 -51
-67 0 -4 -22 -31 -50 -61 -27 -30 -53 -59 -58 -65 -19 -21 -113 -105 -117
-105 -3 0 -18 -13 -33 -30 -16 -16 -32 -30 -36 -30 -4 0 -13 -6 -21 -12 -25
-24 -55 -48 -61 -48 -3 0 -25 -13 -49 -30 -24 -16 -48 -30 -54 -30 -6 0 -11
-3 -11 -7 0 -9 -49 -33 -67 -33 -7 0 -13 -4 -13 -10 0 -5 -9 -10 -20 -10 -11
0 -20 -4 -20 -10 0 -5 -9 -10 -19 -10 -11 0 -23 -4 -26 -10 -3 -5 -19 -10 -36
-10 -16 0 -29 -4 -29 -10 0 -5 -8 -10 -18 -10 -10 0 -22 -3 -26 -7 -12 -12
-80 -33 -108 -33 -15 0 -29 -4 -32 -9 -3 -5 -25 -12 -48 -15 -24 -4 -72 -11
-108 -17 -83 -15 -435 -15 -520 -1 -85 14 -218 44 -255 57 -30 10 -68 26 -87
36 -10 5 -24 9 -33 9 -8 0 -30 9 -50 20 -20 11 -42 20 -50 20 -8 0 -15 5 -15
10 0 6 -6 10 -13 10 -18 0 -67 24 -67 33 0 4 -7 7 -15 7 -8 0 -15 5 -15 10 0
6 -7 10 -15 10 -8 0 -15 3 -15 8 0 4 -15 14 -32 21 -18 8 -40 23 -49 33 -9 10
-19 18 -23 18 -7 0 -40 26 -73 58 -13 12 -26 22 -28 22 -12 0 -145 136 -145
147 0 7 -7 13 -15 13 -8 0 -15 4 -15 9 0 5 -12 22 -27 39 -16 16 -35 40 -43
52 -8 12 -20 28 -27 35 -7 7 -9 15 -6 19 4 3 1 6 -5 6 -7 0 -19 15 -27 33 -8
17 -28 52 -45 77 -16 25 -35 56 -41 70 -56 119 -69 151 -69 162 0 8 -4 18 -10
24 -5 5 -11 18 -13 29 -2 11 -7 28 -11 37 -4 9 -9 22 -10 30 -2 7 -6 20 -9 28
-3 8 -8 29 -11 45 -2 17 -10 50 -15 75 -38 157 -52 409 -31 553 20 133 53 290
72 336 6 14 12 31 14 38 6 31 29 91 46 121 10 18 18 39 18 47 0 8 5 15 10 15
6 0 10 9 10 20 0 11 5 20 11 20 5 0 7 5 4 10 -3 6 -1 10 5 10 6 0 9 4 6 9 -4
5 -3 11 1 13 5 1 19 24 32 51 13 26 28 47 32 47 4 0 11 9 14 20 3 11 12 26 18
32 7 7 24 31 40 54 15 22 42 56 60 76 17 20 48 54 67 77 19 22 38 41 42 41 4
0 27 19 51 43 53 51 85 77 95 77 4 0 14 9 22 20 8 11 20 20 27 20 7 0 13 5 13
10 0 6 7 10 15 10 8 0 15 5 15 10 0 6 5 10 11 10 6 0 29 13 52 28 42 28 64 39
125 64 17 7 32 16 32 20 0 5 9 8 20 8 11 0 20 5 20 10 0 6 9 10 20 10 11 0 29
5 40 10 11 6 29 15 40 20 11 6 29 10 39 10 11 0 23 5 26 10 3 6 21 10 40 10
19 0 37 5 40 10 3 6 21 10 40 10 19 0 37 5 40 10 3 6 32 10 63 10 31 0 64 5
72 10 16 11 374 7 485 -5z"/>
<path d="M13280 6215 c0 -1779 -1 -3238 -2 -3242 -4 -11 1624 -20 1640 -9 9 7
12 664 12 3231 0 1773 -3 3230 -6 3239 -6 14 -88 16 -825 16 l-819 0 0 -3235z"/>
<path d="M38340 3770 l0 -60 145 0 145 0 2 -376 3 -376 58 -1 c33 -1 61 2 64
6 3 5 4 163 4 352 -1 189 1 355 5 369 l6 26 139 0 139 0 0 60 0 60 -355 0
-355 0 0 -60z"/>
<path d="M39099 3818 c-4 -54 0 -849 4 -855 4 -6 78 -9 120 -4 4 1 7 147 7
326 0 179 3 325 8 325 4 0 18 -35 31 -78 13 -42 27 -81 31 -87 4 -5 26 -66 49
-135 24 -69 49 -138 56 -155 7 -16 21 -52 30 -80 9 -27 23 -65 31 -83 15 -33
16 -33 76 -30 l60 3 25 75 c14 41 29 79 34 85 5 5 9 19 9 31 0 13 5 26 10 29
6 3 10 15 10 26 0 10 5 19 12 19 6 0 9 3 6 6 -3 3 3 29 14 57 10 29 27 75 36
102 9 28 18 52 22 55 3 3 7 12 9 20 16 58 47 140 54 140 4 0 7 -146 7 -324 0
-301 1 -325 18 -329 25 -7 95 -3 110 6 9 6 12 103 12 422 0 227 -3 420 -6 429
-5 13 -24 16 -99 16 -105 0 -91 13 -136 -120 -12 -36 -25 -70 -30 -75 -4 -6
-10 -22 -13 -35 -3 -14 -26 -83 -51 -155 -25 -71 -50 -143 -55 -160 -6 -16
-14 -39 -19 -50 -5 -11 -15 -35 -21 -53 -7 -18 -16 -29 -20 -25 -4 4 -22 51
-39 103 -18 52 -39 109 -46 125 -7 17 -29 75 -48 130 -19 55 -49 138 -66 185
-17 47 -29 91 -26 98 3 7 1 11 -4 8 -5 -3 -11 1 -15 9 -7 20 -196 22 -197 3z"/>
</g>
</svg>
