<?xml version="1.0" standalone="no"?>
<!DOCTYPE svg PUBLIC "-//W3C//DTD SVG 20010904//EN"
 "http://www.w3.org/TR/2001/REC-SVG-20010904/DTD/svg10.dtd">
<svg version="1.0" xmlns="http://www.w3.org/2000/svg"
 width="576.000000pt" height="300.000000pt" viewBox="0 0 576.000000 300.000000"
 preserveAspectRatio="xMidYMid meet">
<metadata>
Created by potrace 1.15, written by Peter Selinger 2001-2017
</metadata>
<g transform="translate(0.000000,300.000000) scale(0.100000,-0.100000)"
fill="#000000" stroke="none">
<path d="M553 2980 c-78 -12 -192 -48 -249 -81 -206 -117 -296 -397 -281 -869
16 -477 135 -687 434 -764 193 -50 549 -39 783 24 l42 11 -6 42 c-3 23 -10 86
-17 140 l-12 99 -31 -6 c-17 -3 -146 -9 -286 -12 -223 -6 -262 -5 -313 10
-150 44 -201 182 -200 546 1 281 25 393 101 469 78 77 151 88 494 74 134 -5
199 -5 202 2 6 17 30 265 25 269 -8 8 -156 35 -251 45 -109 12 -355 13 -435 1z"/>
<path d="M1573 2940 c-21 -13 -35 -31 -42 -57 -7 -25 -11 -305 -11 -830 l0
-793 180 0 180 0 -1 573 c0 314 -3 603 -8 640 -9 88 12 89 41 2 23 -71 170
-378 394 -826 170 -342 191 -372 258 -384 18 -4 96 -5 174 -3 124 3 144 5 169
24 15 11 34 32 40 45 10 18 13 209 13 827 l0 802 -181 0 -181 0 5 -597 c3
-329 9 -613 13 -630 5 -25 3 -33 -8 -33 -9 0 -27 28 -43 68 -42 98 -534 1102
-557 1135 -36 51 -62 57 -240 57 -144 0 -167 -2 -195 -20z"/>
<path d="M3302 2113 l3 -848 188 -3 187 -2 0 850 0 850 -190 0 -190 0 2 -847z"/>
<path d="M4022 2238 c4 -818 -1 -773 85 -868 95 -106 118 -110 606 -110 l397
0 0 155 0 155 -315 0 c-336 0 -360 3 -385 49 -6 13 -10 246 -10 680 l0 661
-190 0 -191 0 3 -722z"/>
<path d="M5450 1410 l0 -150 150 0 150 0 0 150 0 150 -150 0 -150 0 0 -150z"/>
<path d="M122 891 c-84 -21 -126 -124 -88 -216 21 -49 68 -75 138 -75 71 0 88
7 88 35 0 22 -3 22 -62 18 -54 -4 -66 -2 -85 16 -28 27 -37 61 -29 106 10 51
42 68 116 63 57 -4 60 -3 60 18 0 13 -3 25 -7 27 -17 11 -100 15 -131 8z"/>
<path d="M393 889 c-17 -5 -43 -23 -57 -40 -22 -26 -26 -40 -26 -95 0 -110 40
-154 140 -154 98 0 140 45 140 147 0 65 -13 98 -50 124 -31 22 -104 31 -147
18z m103 -57 c38 -25 46 -114 13 -156 -16 -20 -29 -26 -59 -26 -52 0 -80 35
-80 99 0 66 20 91 73 91 23 0 47 -4 53 -8z"/>
<path d="M1613 889 c-53 -16 -78 -72 -53 -119 6 -11 35 -27 65 -36 68 -22 94
-46 74 -70 -11 -13 -26 -15 -76 -11 -60 4 -63 4 -63 -18 0 -28 17 -35 86 -35
59 0 108 19 118 45 21 55 -13 106 -82 125 -96 25 -88 74 10 68 57 -3 58 -2 58
23 0 23 -5 27 -37 33 -47 7 -60 7 -100 -5z"/>
<path d="M1883 889 c-59 -17 -83 -89 -43 -129 11 -11 40 -25 64 -31 57 -14 85
-42 65 -65 -11 -13 -26 -15 -76 -11 -60 4 -63 4 -63 -18 0 -28 17 -35 86 -35
59 0 108 19 118 45 21 55 -13 106 -82 125 -48 12 -74 34 -65 56 5 12 19 15 69
12 63 -3 64 -3 64 23 0 23 -5 27 -37 33 -47 7 -60 7 -100 -5z"/>
<path d="M2342 891 c-66 -17 -98 -75 -90 -163 9 -91 58 -131 155 -125 71 3
105 26 124 85 12 38 7 119 -11 152 -22 41 -112 67 -178 51z m110 -68 c35 -40
27 -142 -12 -163 -24 -13 -66 -13 -90 0 -25 13 -43 73 -35 113 11 49 32 67 80
67 27 0 47 -6 57 -17z"/>
<path d="M4295 885 c-22 -8 -41 -15 -42 -15 -1 0 -10 -15 -19 -32 -21 -39 -23
-142 -5 -176 31 -57 144 -82 212 -46 78 40 79 221 2 262 -35 19 -107 22 -148
7z m119 -61 c35 -35 33 -126 -5 -156 -29 -25 -78 -23 -106 4 -18 17 -23 32
-23 73 0 71 19 95 75 95 26 0 50 -6 59 -16z"/>
<path d="M650 745 l0 -145 30 0 29 0 3 93 3 92 35 -67 c20 -40 41 -68 50 -68
9 0 30 28 50 68 l35 67 3 -92 3 -93 29 0 30 0 0 145 0 145 -33 0 c-31 0 -35
-4 -72 -80 -21 -44 -42 -80 -45 -80 -3 0 -24 36 -45 80 -37 76 -41 80 -72 80
l-33 0 0 -145z"/>
<path d="M1030 745 l0 -145 30 0 29 0 3 93 3 92 35 -67 c45 -88 59 -88 104 0
l35 67 1 -92 0 -93 30 0 30 0 0 145 0 145 -30 0 c-27 0 -33 -7 -70 -80 -22
-44 -44 -80 -48 -80 -4 0 -26 36 -47 80 -37 76 -41 80 -72 80 l-33 0 0 -145z"/>
<path d="M1410 745 l0 -145 35 0 35 0 0 145 0 145 -35 0 -35 0 0 -145z"/>
<path d="M2110 745 l0 -145 35 0 35 0 0 145 0 145 -35 0 -35 0 0 -145z"/>
<path d="M2610 745 l0 -145 30 0 29 0 3 97 3 98 70 -98 c59 -83 73 -97 97 -97
l28 0 0 145 0 145 -30 0 -29 0 -3 -92 -3 -93 -68 93 c-59 79 -73 92 -98 92
l-29 0 0 -145z"/>
<path d="M3150 745 l0 -145 30 0 30 0 0 97 0 97 71 -97 c56 -77 75 -97 95 -97
l24 0 0 145 0 145 -30 0 -29 0 -3 -91 -3 -91 -65 91 c-55 76 -69 91 -92 91
l-28 0 0 -145z"/>
<path d="M3579 863 c-6 -15 -30 -79 -55 -141 -24 -63 -44 -116 -44 -118 0 -2
14 -4 31 -4 25 0 32 6 45 35 14 34 16 35 69 35 53 0 55 -1 69 -35 13 -29 20
-35 45 -35 17 0 31 1 31 3 0 1 -24 66 -54 142 l-54 140 -36 3 c-32 3 -37 0
-47 -25z"/>
<path d="M3770 865 c0 -23 4 -25 45 -25 l45 0 0 -120 0 -120 30 0 30 0 0 120
0 120 45 0 c41 0 45 2 45 25 l0 25 -120 0 -120 0 0 -25z"/>
<path d="M4080 745 l0 -145 30 0 30 0 0 145 0 145 -30 0 -30 0 0 -145z"/>
<path d="M4580 745 l0 -145 30 0 29 0 3 93 3 92 65 -92 c55 -77 69 -92 93 -93
l27 0 0 145 0 145 -30 0 -29 0 -3 -92 -3 -93 -65 92 c-55 77 -69 92 -92 93
l-28 0 0 -145z"/>
<path d="M5016 882 c-7 -12 -106 -268 -106 -275 0 -4 13 -7 30 -7 25 0 32 6
44 35 15 34 17 35 70 35 53 0 55 -1 67 -35 11 -30 17 -35 46 -35 l33 0 -21 53
c-97 251 -89 237 -125 237 -18 0 -35 -3 -38 -8z"/>
<path d="M5270 745 l0 -145 105 0 105 0 0 25 c0 24 -2 25 -70 25 l-70 0 0 120
0 120 -35 0 -35 0 0 -145z"/>
<path d="M5540 745 l0 -145 105 0 105 0 0 25 c0 24 -2 25 -75 25 l-75 0 0 35
0 35 65 0 c63 0 65 1 65 25 0 24 -2 25 -65 25 l-65 0 0 35 0 35 75 0 c73 0 75
1 75 25 l0 25 -105 0 -105 0 0 -145z"/>
<path d="M30 235 l0 -145 30 0 30 0 0 145 0 145 -30 0 -30 0 0 -145z"/>
<path d="M150 235 l0 -145 30 0 29 0 3 93 3 92 68 -92 c59 -80 73 -93 98 -93
l29 0 0 145 0 145 -30 0 -29 0 -3 -97 -3 -98 -70 98 c-59 83 -73 97 -97 97
l-28 0 0 -145z"/>
<path d="M470 235 l0 -145 30 0 30 0 0 60 0 60 65 0 c63 0 65 1 65 25 0 24 -2
25 -65 25 l-65 0 0 35 0 35 75 0 c73 0 75 1 75 25 l0 25 -105 0 -105 0 0 -145z"/>
<path d="M744 361 c-42 -26 -57 -67 -52 -147 4 -59 8 -70 35 -94 57 -51 163
-48 213 5 20 21 25 39 28 94 5 80 -12 122 -58 146 -41 21 -128 19 -166 -4z
m141 -56 c19 -19 25 -35 25 -70 0 -58 -12 -80 -50 -93 -64 -23 -110 18 -110
99 0 50 35 89 80 89 19 0 40 -9 55 -25z"/>
<path d="M1030 236 l0 -146 30 0 c29 0 30 2 30 45 0 44 0 45 34 45 30 0 36 -5
55 -45 18 -39 25 -45 51 -45 36 0 36 2 6 62 l-23 47 26 19 c36 26 37 100 3
134 -20 20 -35 23 -117 26 l-95 4 0 -146z"/>
<path d="M1320 235 l0 -145 30 0 29 0 3 88 3 87 33 -62 c23 -45 38 -63 52 -63
14 0 29 18 52 63 l33 62 3 -87 3 -88 29 0 30 0 0 145 0 145 -30 0 c-28 0 -33
-7 -72 -85 -23 -47 -45 -85 -48 -85 -3 0 -25 38 -48 85 -39 78 -44 85 -72 85
l-30 0 0 -145z"/>
<path d="M1737 288 c-19 -51 -45 -117 -56 -145 l-21 -53 33 0 c29 0 35 5 46
35 12 34 14 35 67 35 52 0 54 -1 68 -35 13 -30 20 -35 47 -35 21 0 30 4 26 13
-3 6 -28 72 -57 145 l-51 132 -33 0 c-33 0 -34 -2 -69 -92z"/>
<path d="M1930 355 c0 -23 4 -25 45 -25 l45 0 0 -120 0 -120 30 0 30 0 0 120
0 120 45 0 c41 0 45 2 45 25 l0 25 -120 0 -120 0 0 -25z"/>
<path d="M2220 235 l0 -145 30 0 30 0 0 145 0 145 -30 0 -30 0 0 -145z"/>
<path d="M2401 368 c-48 -26 -66 -64 -66 -138 0 -80 21 -119 73 -135 18 -5 35
-18 38 -30 12 -37 36 -55 76 -55 33 0 38 3 38 23 0 18 -5 23 -27 22 -39 0 -36
27 4 37 17 5 41 20 52 33 42 55 38 166 -9 218 -24 27 -35 31 -91 34 -40 2 -73
-1 -88 -9z m129 -58 c31 -31 31 -122 -1 -154 -24 -25 -81 -26 -108 -2 -39 35
-34 141 7 166 29 16 81 11 102 -10z"/>
<path d="M2670 264 c0 -113 1 -116 28 -144 52 -52 168 -48 211 7 18 22 21 40
21 139 l0 114 -30 0 -30 0 0 -102 c0 -57 -4 -108 -8 -115 -11 -17 -59 -33 -79
-26 -47 16 -53 31 -53 140 l0 103 -30 0 -30 0 0 -116z"/>
<path d="M2990 235 l0 -145 105 0 c98 0 105 1 105 20 0 17 -8 19 -72 22 l-73
3 -3 38 -3 37 71 0 c68 0 71 1 68 23 -3 20 -9 22 -70 25 l-68 3 0 34 0 35 75
0 c73 0 75 1 75 25 l0 25 -105 0 -105 0 0 -145z"/>
<path d="M3400 360 c-24 -24 -26 -57 -5 -87 14 -20 13 -24 -15 -51 -79 -79 22
-175 135 -128 34 15 40 15 55 1 15 -14 19 -13 35 5 13 15 15 24 8 31 -6 6 -9
28 -6 50 5 34 3 39 -15 39 -12 0 -22 -9 -26 -22 -5 -23 -6 -23 -38 9 l-32 32
22 24 c29 31 29 81 0 101 -32 23 -94 20 -118 -4z"/>
<path d="M3790 235 l0 -145 105 0 c98 0 105 1 105 20 0 18 -7 20 -75 20 l-75
0 0 125 0 125 -30 0 -30 0 0 -145z"/>
<path d="M4040 235 l0 -145 30 0 30 0 0 145 0 145 -30 0 -30 0 0 -145z"/>
<path d="M4168 374 c-5 -4 -8 -70 -8 -146 l0 -138 99 0 c84 0 102 3 125 21 33
26 37 90 7 111 -17 12 -17 16 -5 33 20 27 17 69 -5 96 -17 22 -29 24 -113 27
-51 2 -96 0 -100 -4z"/>
<path d="M4467 374 c-4 -4 -7 -70 -7 -146 l0 -138 110 0 c103 0 110 1 110 20
0 18 -7 20 -75 20 l-75 0 0 40 0 40 65 0 c63 0 65 1 65 25 0 24 -2 25 -65 25
l-65 0 0 35 0 35 76 0 c72 0 75 1 72 23 -3 21 -8 22 -104 25 -55 1 -103 0
-107 -4z"/>
<path d="M4730 236 l0 -146 30 0 c29 0 30 2 30 45 0 45 0 45 36 45 32 0 37 -4
55 -45 17 -39 24 -45 49 -45 35 0 37 8 10 61 l-21 40 26 30 c33 40 33 88 1
126 -23 26 -29 28 -120 31 l-96 4 0 -146z"/>
<path d="M4990 355 c0 -23 4 -25 45 -25 l45 0 0 -120 0 -120 30 0 30 0 0 120
0 120 45 0 c41 0 45 2 45 25 l0 25 -120 0 -120 0 0 -25z"/>
<path d="M5277 374 c-4 -4 -7 -70 -7 -146 l0 -138 110 0 c103 0 110 1 110 20
0 18 -7 20 -75 20 l-75 0 0 40 0 40 65 0 c63 0 65 1 65 25 0 24 -2 25 -65 25
l-65 0 0 35 0 35 76 0 c72 0 75 1 72 23 -3 21 -8 22 -104 25 -55 1 -103 0
-107 -4z"/>
<path d="M5575 368 c-30 -16 -45 -39 -45 -68 0 -42 27 -68 85 -86 88 -25 99
-79 17 -78 -20 0 -49 3 -64 7 -26 7 -28 5 -28 -22 0 -28 2 -30 54 -36 91 -12
156 23 156 83 0 41 -19 60 -80 83 -71 26 -88 42 -69 65 11 13 26 15 71 11 55
-5 58 -4 58 18 0 13 -7 26 -16 29 -26 10 -117 6 -139 -6z"/>
</g>
</svg>
