<svg xmlns="http://www.w3.org/2000/svg" width="1083.4" height="231" viewBox="0 0 1083.4 231">
  <path fill="#114FAA" d="M423.5 175.7c-8.2 0-15.5-1.5-22-4.3-6.5-2.9-12.1-6.8-16.7-11.7-4.6-4.9-8.2-10.6-10.7-17.1-2.5-6.5-3.8-13.3-3.8-20.4 0-7.1 1.3-13.9 3.8-20.4 2.5-6.5 6.1-12.2 10.8-17.1 4.7-4.9 10.3-8.8 16.8-11.7 6.5-2.9 13.8-4.3 21.8-4.3s15.3 1.4 21.8 4.3 12.1 6.8 16.8 11.7c4.7 4.9 8.3 10.6 10.8 17.1 2.5 6.5 3.8 13.3 3.8 20.4 0 7.1-1.3 13.9-3.8 20.4-2.5 6.5-6.1 12.2-10.8 17.1-4.7 4.9-10.3 8.8-16.8 11.7-6.5 2.9-13.7 4.3-21.8 4.3zm-30.8-53.3c0 5 .8 9.6 2.4 13.8 1.6 4.2 3.8 7.9 6.5 11 2.8 3.1 6 5.5 9.8 7.3 3.8 1.8 7.8 2.7 12.1 2.7s8.4-.9 12.1-2.7c3.8-1.8 7-4.2 9.8-7.4 2.8-3.2 4.9-6.8 6.5-11.1 1.6-4.2 2.4-8.8 2.4-13.8 0-4.9-.8-9.4-2.4-13.7-1.6-4.3-3.8-8-6.5-11.2-2.8-3.2-6-5.6-9.8-7.4-3.8-1.8-7.8-2.7-12.1-2.7-4.2 0-8.2.9-11.9 2.8-3.8 1.8-7 4.3-9.8 7.5-2.8 3.2-5 6.9-6.6 11.2-1.7 4.3-2.5 8.8-2.5 13.7zM486.9 26h21.7v117.7c0 3.8 1 6.8 3 9s4.7 3.3 8.3 3.3c1.4 0 3.2-.2 5.1-.7 2-.5 3.8-1.1 5.5-1.9l3.2 17.6c-3.2 1.5-6.9 2.6-11.3 3.5-4.3.9-8.2 1.3-11.6 1.3-7.5 0-13.4-2-17.6-6.1-4.2-4.1-6.3-9.9-6.3-17.4V26zM543.9 26h21.7v117.7c0 3.8 1 6.8 3 9s4.7 3.3 8.3 3.3c1.4 0 3.2-.2 5.1-.7 2-.5 3.8-1.1 5.5-1.9l3.2 17.6c-3.2 1.5-6.9 2.6-11.3 3.5-4.3.9-8.2 1.3-11.7 1.3-7.5 0-13.4-2-17.6-6.1-4.2-4.1-6.3-9.9-6.3-17.4V26zM697.3 122c0-7.2 1.3-14.1 3.8-20.5s6.1-12.1 10.8-17c4.7-4.9 10.3-8.7 16.9-11.6 6.6-2.8 14-4.2 22.1-4.2 10.7 0 19.8 2.3 27.5 7 7.7 4.7 13.5 10.9 17.3 18.7l-21.1 6.7c-2.5-4.3-5.9-7.7-10.1-10.2-4.2-2.4-8.9-3.7-14-3.7-4.3 0-8.4.9-12.1 2.6-3.8 1.7-7 4.1-9.8 7.2-2.8 3.1-4.9 6.8-6.5 11-1.6 4.2-2.4 8.9-2.4 14 0 5 .8 9.6 2.5 13.9 1.6 4.3 3.9 8 6.7 11.2 2.8 3.2 6.1 5.6 9.9 7.4 3.8 1.8 7.7 2.7 11.9 2.7 2.6 0 5.3-.4 7.9-1.1 2.6-.7 5-1.7 7.2-3.1 2.2-1.3 4.1-2.8 5.7-4.5 1.6-1.7 2.9-3.6 3.7-5.5l21.3 6.3c-3.4 7.8-9.2 14.1-17.2 19.1-8 4.9-17.5 7.4-28.4 7.4-8 0-15.3-1.5-21.9-4.3-6.6-2.9-12.2-6.8-16.9-11.7-4.7-4.9-8.3-10.6-10.9-17.1-2.6-6.6-3.9-13.5-3.9-20.7zM806.6 26h21.7v117.7c0 3.8 1 6.8 3 9s4.7 3.3 8.3 3.3c1.4 0 3.2-.2 5.1-.7 2-.5 3.8-1.1 5.5-1.9l3.2 17.6c-3.2 1.5-6.9 2.6-11.3 3.5-4.3.9-8.2 1.3-11.7 1.3-7.5 0-13.4-2-17.6-6.1-4.2-4.1-6.3-9.9-6.3-17.4V26zM897.8 122c0-7.2 1.2-14.1 3.8-20.5 2.5-6.4 6.1-12.1 10.8-17 4.7-4.9 10.3-8.7 16.9-11.6 6.6-2.8 13.9-4.2 22.1-4.2 10.7 0 19.8 2.3 27.5 7 7.7 4.7 13.5 10.9 17.3 18.7l-21.1 6.7c-2.5-4.3-5.9-7.7-10.1-10.2-4.2-2.4-8.9-3.7-14-3.7-4.3 0-8.4.9-12.1 2.6-3.8 1.7-7 4.1-9.8 7.2-2.8 3.1-4.9 6.8-6.5 11-1.6 4.2-2.4 8.9-2.4 14 0 5 .8 9.6 2.5 13.9 1.6 4.3 3.9 8 6.7 11.2 2.8 3.2 6.1 5.6 9.9 7.4 3.8 1.8 7.7 2.7 11.9 2.7 2.6 0 5.3-.4 7.9-1.1 2.6-.7 5-1.7 7.2-3.1 2.2-1.3 4.1-2.8 5.7-4.5 1.6-1.7 2.9-3.6 3.7-5.5l21.3 6.3c-3.4 7.8-9.2 14.1-17.2 19.1-8 4.9-17.5 7.4-28.4 7.4-8 0-15.3-1.5-21.9-4.3-6.6-2.9-12.2-6.8-16.9-11.7-4.7-4.9-8.3-10.6-10.9-17.1-2.6-6.6-3.9-13.5-3.9-20.7zM864.8 175.7V68.4h21.7v107.3h-21.7zM875.6 49.6c-1.8 0-3.5-.3-5-1s-2.7-1.5-3.8-2.6c-1-1.1-1.8-2.4-2.4-3.8-.6-1.5-.8-3-.8-4.6 0-1.6.3-3.1.8-4.6.6-1.5 1.4-2.7 2.4-3.8 1.1-1.1 2.3-2 3.8-2.6 1.5-.6 3.1-1 4.9-1 1.8 0 3.4.3 4.9 1 1.5.7 2.7 1.5 3.8 2.6 1.1 1.1 1.9 2.4 2.4 3.8.6 1.5.8 3 .8 4.6 0 1.6-.3 3.1-.8 4.6-.6 1.5-1.4 2.7-2.4 3.8-1 1.1-2.3 2-3.8 2.6-1.3.7-3 1-4.8 1zM1069 127.3c-4.8-4.6-10.4-8.8-16.3-12.1 2.6-1.8 5.1-3.7 7.3-5.7 9.5-8.6 18.9-21 22.6-40.8l-22.2.2s-4.2 18.3-12.2 25.5c-6 5.4-11.4 9.4-19.4 11.1V25.8h-22v150h22v-47.2c9.5 0 20.3 7 25.5 14 6.3 8.4 8 33.2 8 33.2h21.3c-.3-14-2.6-36.8-14.6-48.5zM325.5 175.7c-4.9 0-9.5-.7-13.8-2.2-4.3-1.5-8.2-3.8-11.8-6.9l9.9-15c1.8 1.6 3.8 2.8 6.1 3.6 2.3.7 4.6 1.1 6.9 1.1 3.9 0 7.4-1.5 10.4-4.4 3-2.9 4.6-6.6 4.6-11.1V68.4h22.3v70.8c0 5.4-.9 10.3-2.7 14.8-1.8 4.5-4.3 8.3-7.5 11.6-3.2 3.2-6.9 5.7-11.1 7.5-4.1 1.7-8.6 2.6-13.3 2.6zM349.1 49.1c-1.8 0-3.4-.3-4.8-.9-1.4-.6-2.6-1.5-3.6-2.5-1-1.1-1.8-2.3-2.3-3.7-.5-1.4-.8-2.9-.8-4.5s.3-3 .8-4.5c.5-1.4 1.3-2.7 2.3-3.7 1-1.1 2.2-1.9 3.7-2.5 1.4-.6 3-.9 4.8-.9 1.8 0 3.3.3 4.8.9 1.4.6 2.6 1.5 3.7 2.5 1 1.1 1.8 2.3 2.3 3.7.5 1.4.8 2.9.8 4.5s-.3 3-.8 4.5c-.5 1.4-1.3 2.7-2.3 3.7-1 1.1-2.2 1.9-3.7 2.5-1.6.5-3.2.9-4.9.9zM605.4 194.5c1.8.4 3.5.6 5 .8 1.5.1 3 .2 4.3.2 1.7 0 3.2-.2 4.4-.6 1.3-.4 2.5-1.4 3.8-3 1.2-1.6 2.6-4.1 4.1-7.4 1.5-3.4 3.3-8 5.3-13.9L590.9 69.4h25.6l27.6 78.6 24.1-78.6h23.9L647.7 192c-2.6 7-8.3 14-13.5 17.3-5.2 3.4-11.2 5-18 5-3.7 0-7.3-.5-10.8-1.5v-18.3z"/>
  <g>
    <path fill="#FFD12A" d="M77 79.8C89.9 61.7 92.2 39.2 92 2.3 40.5 13.9.3 60.3 0 115.3c37.5 0 61.4-13.5 77-35.5z"/>
    <path fill="#6CB9FF" d="M230.8 114.9c0-26.9-9.2-53.2-24-69.9-.3 0-55.3-2.6-86.8 36.8-25.2 31.4-30.2 46.4-30.2 77.2 0 26.5 8.8 51.5 25.1 71.9 64-.1 115.9-52 115.9-116z"/>
    <path fill="#114FAA" d="M90.2 159c0-31.1 12.1-59.2 34.1-81.2s51.3-33 82.4-33C185.4 22.8 152.7 0 116 0c-8.5 0-16.8.3-24.7 2.1.2 37.3-2.1 60.5-15.2 78.9-15.8 22.2-39.8 33.2-76.1 34.4.2 63.6 51.5 115 115 115.6-16.1-20.4-24.8-45.6-24.8-72z"/>
  </g>
</svg>
