<?xml version="1.0" standalone="no"?>
<!DOCTYPE svg PUBLIC "-//W3C//DTD SVG 20010904//EN"
 "http://www.w3.org/TR/2001/REC-SVG-20010904/DTD/svg10.dtd">
<svg version="1.0" xmlns="http://www.w3.org/2000/svg"
 width="468.000000pt" height="357.000000pt" viewBox="0 0 468.000000 357.000000"
 preserveAspectRatio="xMidYMid meet">
<metadata>
Created by potrace 1.15, written by Peter Selinger 2001-2017
</metadata>
<g transform="translate(0.000000,357.000000) scale(0.100000,-0.100000)"
fill="#000000" stroke="none">
<path d="M1407 2728 l3 -443 445 -3 445 -2 0 445 0 445 -447 0 -448 0 2 -442z"/>
<path d="M3799 1016 c-44 -30 -69 -87 -69 -156 l0 -50 -40 0 -40 0 0 -45 0
-45 40 0 40 0 0 -190 0 -190 55 0 55 0 0 190 0 190 90 0 90 0 0 -161 0 -161
34 -34 c32 -32 39 -34 98 -34 34 0 68 4 73 8 6 4 10 24 10 44 0 37 0 37 -36
32 -29 -5 -41 -2 -58 15 -19 19 -21 32 -21 156 l0 135 55 0 55 0 0 45 0 45
-55 0 -54 0 -3 68 -3 69 -50 -14 -50 -14 3 -55 4 -54 -91 0 -91 0 0 53 c0 69
29 102 84 95 l36 -4 0 43 0 43 -63 0 c-50 0 -70 -5 -98 -24z"/>
<path d="M460 670 l0 -330 51 0 50 0 -3 270 c-3 254 1 313 16 238 4 -18 51
-139 105 -268 l97 -235 39 0 38 0 98 240 c54 132 101 252 105 268 15 68 19 8
16 -243 l-3 -270 56 0 55 0 0 330 0 330 -78 0 -77 0 -42 -102 c-66 -163 -150
-371 -157 -393 -6 -15 -24 21 -70 140 -35 88 -81 204 -102 257 l-39 98 -77 0
-78 0 0 -330z"/>
<path d="M1665 811 c-77 -20 -142 -78 -166 -148 -7 -21 -13 -68 -13 -104 0
-85 32 -151 93 -194 36 -25 54 -30 118 -34 42 -2 93 2 114 8 38 12 39 13 39
61 l0 48 -31 -15 c-50 -25 -109 -27 -149 -5 -42 22 -80 90 -80 142 1 52 34
116 72 140 40 24 116 27 158 5 l30 -16 0 50 c0 37 -4 50 -17 56 -29 10 -136
15 -168 6z"/>
<path d="M2143 813 c-23 -4 -60 -37 -80 -69 -10 -17 -12 -14 -12 24 l-1 42
-52 0 -53 0 0 -235 0 -235 53 0 52 0 0 141 c0 110 4 149 16 176 24 49 55 67
107 60 l42 -6 0 47 c0 57 -13 67 -72 55z"/>
<path d="M2405 811 c-70 -18 -116 -55 -151 -121 -28 -52 -26 -191 3 -245 44
-83 104 -115 213 -115 158 0 239 82 240 243 0 112 -36 183 -113 224 -33 17
-149 26 -192 14z m135 -96 c78 -40 91 -199 22 -267 -38 -38 -95 -47 -146 -23
-92 44 -105 218 -21 283 33 26 102 29 145 7z"/>
<path d="M2877 806 c-67 -25 -97 -66 -97 -134 0 -60 33 -99 120 -141 66 -31
75 -40 78 -66 3 -19 -2 -33 -14 -42 -26 -19 -92 -16 -142 7 l-43 19 3 -51 c3
-46 6 -53 28 -59 52 -14 164 -10 200 9 45 22 80 75 80 121 0 60 -31 96 -118
140 -91 46 -105 69 -67 107 28 28 56 30 115 9 23 -8 43 -15 44 -15 8 0 -2 87
-11 93 -25 15 -137 18 -176 3z"/>
<path d="M3315 809 c-105 -25 -165 -112 -165 -239 0 -76 15 -124 53 -167 45
-52 98 -73 183 -73 150 0 231 74 242 222 7 93 -12 152 -63 203 -59 60 -146 78
-250 54z m162 -113 c36 -33 38 -37 41 -109 6 -108 -28 -164 -105 -174 -93 -12
-153 49 -153 155 0 106 45 162 131 162 42 0 55 -5 86 -34z"/>
<path d="M1290 575 l0 -235 55 0 55 0 0 235 0 235 -55 0 -55 0 0 -235z"/>
</g>
</svg>
