<?xml version="1.0" standalone="no"?>
<!DOCTYPE svg PUBLIC "-//W3C//DTD SVG 20010904//EN"
 "http://www.w3.org/TR/2001/REC-SVG-20010904/DTD/svg10.dtd">
<svg version="1.0" xmlns="http://www.w3.org/2000/svg"
 width="1280.000000pt" height="885.000000pt" viewBox="0 0 1280.000000 885.000000"
 preserveAspectRatio="xMidYMid meet">
<metadata>
Created by potrace 1.15, written by Peter Selinger 2001-2017
</metadata>
<g transform="translate(0.000000,885.000000) scale(0.100000,-0.100000)"
fill="#000000" stroke="none">
<path d="M5543 6720 l-541 -941 -229 398 c-126 219 -346 602 -489 850 -142
249 -262 453 -265 453 -12 0 -119 -220 -172 -355 -130 -331 -187 -638 -187
-1005 0 -447 89 -829 285 -1225 80 -162 159 -289 263 -427 l66 -88 765 0 766
0 910 1581 c501 870 925 1607 943 1640 l34 59 -804 0 -804 0 -541 -940z"/>
<path d="M8504 6972 l-292 -507 -311 -5 -311 -5 -360 -625 c-198 -343 -360
-628 -360 -632 0 -4 136 -9 303 -10 l303 -3 -228 -395 c-125 -217 -228 -398
-228 -402 0 -5 343 -8 763 -8 l762 0 62 83 c284 380 459 803 530 1282 25 170
25 582 0 750 -32 211 -77 393 -144 575 -36 98 -182 410 -192 410 -3 0 -137
-229 -297 -508z"/>
<path d="M1943 3140 c-180 -19 -335 -79 -455 -175 -221 -177 -334 -563 -287
-982 50 -449 277 -715 669 -783 84 -15 306 -15 390 0 267 46 454 181 566 405
149 300 151 807 5 1110 -123 257 -331 392 -652 425 -110 11 -129 11 -236 0z
m302 -195 c226 -47 384 -209 453 -463 24 -91 26 -111 26 -317 0 -206 -2 -226
-26 -317 -87 -318 -298 -478 -633 -478 -341 0 -554 165 -637 495 -20 79 -23
115 -23 300 0 243 16 327 86 474 75 155 221 269 391 306 85 18 276 18 363 0z"/>
<path d="M3139 3102 c-26 -23 -32 -36 -31 -68 0 -26 104 -314 326 -896 179
-472 332 -870 340 -886 16 -31 53 -52 91 -52 64 0 64 0 415 927 207 546 330
884 330 907 0 49 -34 86 -86 93 -82 11 -72 30 -379 -787 -152 -404 -280 -738
-283 -742 -4 -4 -81 190 -171 430 -381 1011 -399 1056 -426 1080 -37 31 -87
29 -126 -6z"/>
<path d="M4928 3114 c-15 -8 -32 -23 -38 -34 -14 -26 -14 -1804 0 -1831 13
-24 61 -49 96 -49 16 0 38 12 60 34 l34 34 0 416 0 416 480 0 480 0 0 -419 0
-420 23 -26 c14 -17 36 -28 63 -32 36 -5 46 -1 75 25 l34 30 0 907 0 907 -34
30 c-29 26 -39 30 -75 25 -27 -4 -49 -15 -63 -32 l-23 -26 0 -395 0 -394 -480
0 -480 0 0 386 c0 342 -2 389 -17 414 -28 49 -83 63 -135 34z"/>
</g>
</svg>
