<?xml version="1.0" standalone="no"?>
<!DOCTYPE svg PUBLIC "-//W3C//DTD SVG 20010904//EN"
 "http://www.w3.org/TR/2001/REC-SVG-20010904/DTD/svg10.dtd">
<svg version="1.0" xmlns="http://www.w3.org/2000/svg"
 width="943.000000pt" height="1024.000000pt" viewBox="0 0 943.000000 1024.000000"
 preserveAspectRatio="xMidYMid meet">
<metadata>
Created by potrace 1.15, written by Peter Selinger 2001-2017
</metadata>
<g transform="translate(0.000000,1024.000000) scale(0.100000,-0.100000)"
fill="#000000" stroke="none">
<path d="M6321 7836 c95 -180 174 -434 211 -671 24 -162 29 -463 9 -605 -52
-370 -166 -680 -357 -970 -119 -182 -400 -456 -643 -630 -50 -36 -89 -68 -88
-71 7 -21 1112 -1058 1360 -1277 l297 -263 24 28 c13 15 21 30 16 33 -4 3 -69
151 -145 330 l-138 325 -78 538 -77 538 285 657 c262 606 284 660 276 692 -9
35 -952 1398 -977 1412 -7 4 4 -26 25 -66z"/>
<path d="M1369 7347 l-287 -142 -8 -65 c-13 -99 -10 -550 5 -680 65 -574 254
-1099 564 -1563 456 -683 1148 -1180 1922 -1382 260 -68 528 -105 758 -105
l124 0 7 31 c3 17 6 287 6 600 l0 569 -79 0 c-468 0 -970 189 -1352 508 -341
286 -599 698 -714 1140 -51 194 -67 316 -71 537 l-4 210 -282 242 c-156 134
-287 243 -293 242 -5 0 -139 -64 -296 -142z"/>
<path d="M1065 2334 c-205 -28 -294 -53 -430 -121 -122 -61 -204 -121 -305
-223 -142 -143 -246 -324 -297 -517 -34 -132 -44 -374 -19 -506 59 -310 235
-577 497 -753 163 -109 353 -176 536 -191 l83 -6 0 190 0 190 -65 7 c-314 32
-592 275 -676 592 -29 109 -29 279 0 387 65 247 259 459 500 547 436 159 914
-98 1031 -554 39 -155 21 -361 -45 -510 -55 -124 -175 -266 -280 -333 -25 -15
-44 -33 -43 -40 3 -14 533 -483 545 -483 10 0 223 246 223 257 0 4 -52 53
-115 108 -63 55 -115 103 -115 107 0 4 21 40 46 79 60 93 109 207 141 327 31
119 42 335 23 464 -69 476 -449 873 -921 963 -81 15 -262 26 -314 19z"/>
<path d="M8312 1232 l3 -838 37 -76 c40 -81 93 -142 157 -182 102 -65 261 -90
396 -62 82 17 222 78 231 101 5 12 -110 255 -121 255 -2 0 -24 -10 -47 -23
-35 -18 -59 -22 -129 -22 -79 0 -88 2 -123 29 -79 60 -76 39 -76 519 l0 427
170 0 170 0 0 155 0 155 -175 0 -175 0 0 200 0 200 -160 0 -160 0 2 -838z"/>
<path d="M5480 1691 c-183 -27 -340 -104 -470 -231 -175 -172 -261 -392 -246
-635 19 -320 204 -586 498 -713 119 -51 201 -65 358 -59 175 6 294 43 423 131
l37 25 0 -69 0 -70 166 0 166 0 -4 473 c-4 449 -6 476 -26 544 -44 146 -102
248 -200 355 -58 63 -185 152 -267 187 -121 53 -311 80 -435 62z m238 -358
c195 -49 354 -257 351 -463 -2 -264 -220 -479 -485 -480 -130 0 -244 48 -340
144 -110 110 -162 269 -135 413 31 170 157 324 311 378 98 35 182 37 298 8z"/>
<path d="M7235 1689 c-93 -12 -197 -44 -269 -82 -77 -41 -195 -152 -243 -230
-106 -170 -113 -218 -113 -813 l0 -474 175 0 175 0 0 450 c0 292 4 468 11 502
41 195 186 308 394 308 180 0 315 -85 377 -237 23 -58 23 -62 26 -546 l3 -487
174 0 175 0 0 483 c0 288 -4 508 -11 547 -44 274 -242 490 -511 559 -92 24
-266 33 -363 20z"/>
<path d="M2522 1098 c5 -597 2 -575 70 -714 167 -342 623 -443 919 -202 l55
45 40 -34 c114 -98 267 -149 424 -140 123 6 209 34 305 98 113 76 202 194 248
329 21 63 22 80 25 613 l3 547 -175 0 -175 0 -3 -522 c-3 -494 -4 -525 -22
-562 -46 -91 -132 -146 -231 -146 -101 0 -184 52 -233 144 l-27 51 -3 333 -3
332 -175 0 -174 0 0 -332 c0 -365 -1 -371 -64 -445 -92 -109 -290 -109 -382 0
-65 77 -64 60 -64 630 l0 517 -181 0 -180 0 3 -542z"/>
</g>
</svg>
