<?xml version="1.0" standalone="no"?>
<!DOCTYPE svg PUBLIC "-//W3C//DTD SVG 20010904//EN"
 "http://www.w3.org/TR/2001/REC-SVG-20010904/DTD/svg10.dtd">
<svg version="1.0" xmlns="http://www.w3.org/2000/svg"
 width="1988.000000pt" height="1395.000000pt" viewBox="0 0 1988.000000 1395.000000"
 preserveAspectRatio="xMidYMid meet">
<metadata>
Created by potrace 1.15, written by Peter Selinger 2001-2017
</metadata>
<g transform="translate(0.000000,1395.000000) scale(0.100000,-0.100000)"
fill="#000000" stroke="none">
<path d="M6050 12840 c0 -13 7 -20 20 -20 17 0 20 -7 20 -45 0 -41 2 -45 25
-45 24 0 25 -2 25 -65 0 -58 2 -65 20 -65 17 0 20 -7 20 -45 0 -38 3 -45 20
-45 18 0 20 -7 20 -65 0 -63 1 -65 25 -65 23 0 25 -4 25 -45 0 -38 3 -45 20
-45 18 0 20 -7 20 -65 0 -63 1 -65 25 -65 23 0 25 -4 25 -40 0 -33 3 -40 20
-40 17 0 20 -7 20 -45 0 -38 3 -45 20 -45 18 0 20 -7 20 -65 0 -63 1 -65 25
-65 23 0 25 -4 25 -45 0 -38 3 -45 20 -45 18 0 20 -7 20 -65 0 -58 2 -65 20
-65 17 0 20 -7 20 -45 0 -41 2 -45 25 -45 23 0 25 -4 25 -40 0 -33 3 -40 20
-40 17 0 20 -7 20 -45 0 -38 3 -45 20 -45 15 0 20 -7 20 -25 l0 -25 3160 0
3160 0 0 45 c0 41 2 45 25 45 24 0 25 2 25 65 0 58 2 65 20 65 17 0 20 7 20
45 0 38 3 45 20 45 17 0 20 7 20 45 0 41 2 45 25 45 24 0 25 2 25 65 0 58 2
65 20 65 17 0 20 7 20 45 0 41 2 45 25 45 24 0 25 2 25 65 0 58 2 65 20 65 17
0 20 7 20 40 0 33 3 40 20 40 17 0 20 7 20 45 0 41 2 45 25 45 24 0 25 2 25
65 0 58 2 65 20 65 17 0 20 7 20 45 0 38 3 45 20 45 18 0 20 7 20 65 0 63 1
65 25 65 23 0 25 4 25 45 0 38 3 45 20 45 17 0 20 7 20 40 0 33 3 40 20 40 17
0 20 7 20 45 l0 45 -3790 0 c-3783 0 -3790 0 -3790 -20z"/>
<path d="M11190 9615 l0 -25 -130 0 c-123 0 -130 -1 -130 -20 0 -18 -7 -20
-65 -20 -63 0 -65 -1 -65 -25 0 -24 -2 -25 -65 -25 -58 0 -65 -2 -65 -20 0
-17 -7 -20 -45 -20 -38 0 -45 -3 -45 -20 0 -17 -7 -20 -40 -20 -36 0 -40 -2
-40 -25 0 -23 -4 -25 -45 -25 -38 0 -45 -3 -45 -20 0 -13 -7 -20 -20 -20 -13
0 -20 -7 -20 -20 0 -17 -7 -20 -45 -20 -41 0 -45 -2 -45 -25 0 -20 -5 -25 -25
-25 -18 0 -25 -5 -25 -20 0 -13 -7 -20 -20 -20 -13 0 -20 -7 -20 -20 0 -13 -7
-20 -20 -20 -15 0 -20 -7 -20 -25 0 -20 -5 -25 -25 -25 -18 0 -25 -5 -25 -20
0 -13 -7 -20 -20 -20 -15 0 -20 -7 -20 -25 0 -18 -5 -25 -20 -25 -13 0 -20 -7
-20 -20 0 -15 -7 -20 -25 -20 -23 0 -25 -4 -25 -45 0 -38 -3 -45 -20 -45 -13
0 -20 -7 -20 -20 0 -13 -7 -20 -20 -20 -17 0 -20 -7 -20 -45 0 -41 -2 -45 -25
-45 -18 0 -25 -5 -25 -20 0 -13 -7 -20 -20 -20 -17 0 -20 -7 -20 -45 0 -41 -2
-45 -25 -45 -22 0 -25 -4 -25 -40 0 -33 -3 -40 -20 -40 -18 0 -20 -7 -20 -70
0 -63 -2 -70 -20 -70 -18 0 -20 -7 -20 -85 0 -84 0 -85 -25 -85 l-25 0 0 -110
c0 -103 -1 -110 -20 -110 -20 0 -20 -7 -20 -280 0 -273 0 -280 20 -280 19 0
20 -7 20 -110 l0 -110 25 0 c25 0 25 -1 25 -90 0 -83 1 -90 20 -90 18 0 20 -7
20 -65 0 -58 2 -65 20 -65 17 0 20 -7 20 -40 0 -36 3 -40 25 -40 23 0 25 -4
25 -45 0 -38 3 -45 20 -45 13 0 20 -7 20 -20 0 -15 7 -20 25 -20 23 0 25 -4
25 -45 0 -38 3 -45 20 -45 15 0 20 -7 20 -25 0 -18 5 -25 20 -25 17 0 20 -7
20 -40 0 -36 3 -40 25 -40 20 0 25 -5 25 -25 0 -18 5 -25 20 -25 13 0 20 -7
20 -20 0 -13 7 -20 20 -20 13 0 20 -7 20 -20 0 -15 7 -20 25 -20 20 0 25 -5
25 -25 0 -18 5 -25 20 -25 13 0 20 -7 20 -20 0 -13 7 -20 20 -20 13 0 20 -7
20 -20 0 -15 7 -20 25 -20 20 0 25 -5 25 -25 0 -23 4 -25 45 -25 38 0 45 -3
45 -20 0 -13 7 -20 20 -20 15 0 20 -7 20 -25 0 -23 4 -25 45 -25 38 0 45 -3
45 -20 0 -17 7 -20 40 -20 33 0 40 -3 40 -20 0 -17 7 -20 45 -20 41 0 45 -2
45 -25 0 -24 2 -25 65 -25 58 0 65 -2 65 -20 0 -18 7 -20 65 -20 58 0 65 -2
65 -20 0 -19 7 -20 130 -20 l130 0 0 -25 0 -25 285 0 285 0 0 25 0 25 130 0
c123 0 130 1 130 20 0 18 7 20 65 20 58 0 65 2 65 20 0 18 7 20 65 20 63 0 65
1 65 25 0 23 4 25 45 25 38 0 45 3 45 20 0 17 7 20 45 20 38 0 45 3 45 20 0
17 7 20 40 20 36 0 40 3 40 25 0 20 5 25 25 25 18 0 25 5 25 20 0 17 7 20 45
20 41 0 45 2 45 25 0 18 5 25 20 25 13 0 20 7 20 20 0 13 7 20 20 20 13 0 20
7 20 20 0 15 7 20 25 20 20 0 25 5 25 25 0 18 5 25 20 25 13 0 20 7 20 20 0
13 7 20 20 20 13 0 20 7 20 20 0 15 7 20 25 20 20 0 25 5 25 25 0 18 5 25 20
25 17 0 20 7 20 40 0 33 3 40 20 40 15 0 20 7 20 25 0 20 5 25 25 25 23 0 25
4 25 45 0 38 3 45 20 45 13 0 20 7 20 20 0 13 7 20 20 20 17 0 20 7 20 45 0
41 2 45 25 45 23 0 25 4 25 40 0 33 3 40 20 40 18 0 20 7 20 65 0 63 1 65 25
65 24 0 25 2 25 65 0 58 2 65 20 65 19 0 20 7 20 135 0 128 1 135 20 135 20 0
20 7 20 280 0 273 0 280 -20 280 -19 0 -20 7 -20 130 0 123 -1 130 -20 130
-18 0 -20 7 -20 65 0 63 -1 65 -25 65 -24 0 -25 2 -25 70 0 63 -2 70 -20 70
-17 0 -20 7 -20 40 0 36 -2 40 -25 40 -23 0 -25 4 -25 45 0 38 -3 45 -20 45
-17 0 -20 7 -20 45 0 38 -3 45 -20 45 -13 0 -20 7 -20 20 0 15 -7 20 -25 20
-23 0 -25 4 -25 45 0 38 -3 45 -20 45 -13 0 -20 7 -20 20 0 13 -7 20 -20 20
-13 0 -20 7 -20 20 0 15 -7 20 -25 20 -20 0 -25 5 -25 25 0 18 -5 25 -20 25
-13 0 -20 7 -20 20 0 13 -7 20 -20 20 -15 0 -20 7 -20 25 0 20 -5 25 -25 25
-18 0 -25 5 -25 20 0 13 -7 20 -20 20 -13 0 -20 7 -20 20 0 13 -7 20 -20 20
-15 0 -20 7 -20 25 0 23 -4 25 -45 25 -38 0 -45 3 -45 20 0 15 -7 20 -25 20
-18 0 -25 5 -25 20 0 17 -7 20 -40 20 -36 0 -40 3 -40 25 0 23 -4 25 -45 25
-38 0 -45 3 -45 20 0 17 -7 20 -45 20 -38 0 -45 3 -45 20 0 18 -7 20 -65 20
-63 0 -65 1 -65 25 0 24 -2 25 -65 25 -58 0 -65 2 -65 20 0 19 -7 20 -130 20
l-130 0 0 25 0 25 -285 0 -285 0 0 -25z m350 -745 c0 -19 7 -20 130 -20 123 0
130 -1 130 -20 0 -18 7 -20 65 -20 63 0 65 -1 65 -25 0 -23 4 -25 45 -25 38 0
45 -3 45 -20 0 -17 7 -20 45 -20 38 0 45 -3 45 -20 0 -13 7 -20 20 -20 15 0
20 -7 20 -25 0 -20 5 -25 25 -25 18 0 25 -5 25 -20 0 -13 7 -20 20 -20 13 0
20 -7 20 -20 0 -13 7 -20 20 -20 15 0 20 -7 20 -25 0 -20 5 -25 25 -25 18 0
25 -5 25 -20 0 -13 7 -20 20 -20 17 0 20 -7 20 -45 0 -38 3 -45 20 -45 13 0
20 -7 20 -20 0 -15 7 -20 25 -20 24 0 25 -2 25 -65 0 -58 2 -65 20 -65 17 0
20 -7 20 -45 0 -38 3 -45 20 -45 19 0 20 -7 20 -110 l0 -110 25 0 25 0 0 -150
0 -150 -25 0 c-25 0 -25 -1 -25 -90 0 -83 -1 -90 -20 -90 -18 0 -20 -7 -20
-65 0 -58 -2 -65 -20 -65 -18 0 -20 -7 -20 -65 0 -63 -1 -65 -25 -65 -18 0
-25 -5 -25 -20 0 -13 -7 -20 -20 -20 -17 0 -20 -7 -20 -45 0 -38 -3 -45 -20
-45 -13 0 -20 -7 -20 -20 0 -15 -7 -20 -25 -20 -20 0 -25 -5 -25 -25 0 -18 -5
-25 -20 -25 -13 0 -20 -7 -20 -20 0 -13 -7 -20 -20 -20 -13 0 -20 -7 -20 -20
0 -15 -7 -20 -25 -20 -20 0 -25 -5 -25 -25 0 -23 -4 -25 -45 -25 -38 0 -45 -3
-45 -20 0 -13 -7 -20 -20 -20 -13 0 -20 -7 -20 -20 0 -18 -7 -20 -65 -20 -63
0 -65 -1 -65 -25 0 -24 -2 -25 -65 -25 -58 0 -65 -2 -65 -20 0 -20 -7 -20
-285 -20 -278 0 -285 0 -285 20 0 18 -7 20 -65 20 -63 0 -65 1 -65 25 0 24 -2
25 -65 25 -58 0 -65 2 -65 20 0 13 -7 20 -20 20 -13 0 -20 7 -20 20 0 17 -7
20 -45 20 -41 0 -45 2 -45 25 0 18 -5 25 -20 25 -13 0 -20 7 -20 20 0 15 -7
20 -25 20 -18 0 -25 5 -25 20 0 13 -7 20 -20 20 -15 0 -20 7 -20 25 0 18 -5
25 -20 25 -13 0 -20 7 -20 20 0 15 -7 20 -25 20 -23 0 -25 4 -25 45 0 38 -3
45 -20 45 -17 0 -20 7 -20 40 0 33 -3 40 -20 40 -17 0 -20 7 -20 45 0 41 -2
45 -25 45 -24 0 -25 2 -25 65 0 58 -2 65 -20 65 -19 0 -20 7 -20 110 0 103 -1
110 -20 110 -19 0 -20 7 -20 130 0 123 1 130 20 130 19 0 20 7 20 90 0 83 1
90 20 90 18 0 20 7 20 65 0 63 1 65 25 65 24 0 25 2 25 65 0 58 2 65 20 65 13
0 20 7 20 20 0 13 7 20 20 20 17 0 20 7 20 45 0 41 2 45 25 45 18 0 25 5 25
20 0 13 7 20 20 20 15 0 20 7 20 25 0 18 5 25 20 25 13 0 20 7 20 20 0 15 7
20 25 20 18 0 25 5 25 20 0 13 7 20 20 20 15 0 20 7 20 25 0 18 5 25 20 25 13
0 20 7 20 20 0 17 7 20 45 20 38 0 45 3 45 20 0 17 7 20 45 20 41 0 45 2 45
25 0 24 2 25 65 25 58 0 65 2 65 20 0 19 7 20 130 20 123 0 130 1 130 20 0 18
7 20 65 20 58 0 65 -2 65 -20z"/>
<path d="M14070 8155 c0 -1478 0 -1485 -20 -1485 -20 0 -20 -7 -20 -370 0
-363 0 -370 20 -370 13 0 20 -7 20 -20 0 -20 7 -20 370 -20 l370 0 0 980 c0
973 0 980 20 980 15 0 20 -7 20 -25 0 -20 5 -25 25 -25 18 0 25 -5 25 -20 0
-13 7 -20 20 -20 17 0 20 -7 20 -45 0 -41 2 -45 25 -45 18 0 25 -5 25 -20 0
-13 7 -20 20 -20 13 0 20 -7 20 -20 0 -13 7 -20 20 -20 15 0 20 -7 20 -25 0
-20 5 -25 25 -25 18 0 25 -5 25 -20 0 -13 7 -20 20 -20 13 0 20 -7 20 -20 0
-13 7 -20 20 -20 15 0 20 -7 20 -25 0 -20 5 -25 25 -25 18 0 25 -5 25 -20 0
-13 7 -20 20 -20 17 0 20 -7 20 -45 0 -38 3 -45 20 -45 13 0 20 -7 20 -20 0
-15 7 -20 25 -20 20 0 25 -5 25 -25 0 -18 5 -25 20 -25 13 0 20 -7 20 -20 0
-13 7 -20 20 -20 13 0 20 -7 20 -20 0 -15 7 -20 25 -20 20 0 25 -5 25 -25 0
-18 5 -25 20 -25 13 0 20 -7 20 -20 0 -15 7 -20 25 -20 18 0 25 -5 25 -20 0
-13 7 -20 20 -20 15 0 20 -7 20 -25 0 -18 5 -25 20 -25 17 0 20 -7 20 -40 0
-36 3 -40 25 -40 20 0 25 -5 25 -25 0 -18 5 -25 20 -25 13 0 20 -7 20 -20 0
-13 7 -20 20 -20 13 0 20 -7 20 -20 0 -15 7 -20 25 -20 20 0 25 -5 25 -25 0
-18 5 -25 20 -25 13 0 20 -7 20 -20 0 -13 7 -20 20 -20 15 0 20 -7 20 -25 0
-20 5 -25 25 -25 18 0 25 -5 25 -20 0 -13 7 -20 20 -20 13 0 20 -7 20 -20 0
-13 7 -20 20 -20 17 0 20 -7 20 -45 0 -41 2 -45 25 -45 18 0 25 -5 25 -20 0
-13 7 -20 20 -20 15 0 20 -7 20 -25 0 -20 5 -25 25 -25 18 0 25 -5 25 -20 0
-13 7 -20 20 -20 13 0 20 -7 20 -20 0 -13 7 -20 20 -20 15 0 20 -7 20 -25 0
-20 5 -25 25 -25 18 0 25 -5 25 -20 0 -13 7 -20 20 -20 15 0 20 -7 20 -25 0
-18 5 -25 20 -25 17 0 20 -7 20 -40 0 -36 3 -40 25 -40 20 0 25 -5 25 -25 0
-18 5 -25 20 -25 13 0 20 -7 20 -20 0 -13 7 -20 20 -20 13 0 20 -7 20 -20 0
-15 7 -20 25 -20 20 0 25 -5 25 -25 0 -18 5 -25 20 -25 13 0 20 -7 20 -20 0
-19 7 -20 90 -20 83 0 90 1 90 20 0 13 7 20 20 20 20 0 20 7 20 1855 0 1848 0
1855 -20 1855 -13 0 -20 7 -20 20 0 20 -7 20 -350 20 -343 0 -350 0 -350 -20
0 -15 -7 -20 -25 -20 l-25 0 0 -1005 c0 -998 0 -1005 -20 -1005 -17 0 -20 7
-20 45 0 38 -3 45 -20 45 -13 0 -20 7 -20 20 0 15 -7 20 -25 20 -20 0 -25 5
-25 25 0 18 -5 25 -20 25 -13 0 -20 7 -20 20 0 13 -7 20 -20 20 -13 0 -20 7
-20 20 0 15 -7 20 -25 20 -20 0 -25 5 -25 25 0 18 -5 25 -20 25 -17 0 -20 7
-20 45 0 38 -3 45 -20 45 -13 0 -20 7 -20 20 0 15 -7 20 -25 20 -18 0 -25 5
-25 20 0 13 -7 20 -20 20 -15 0 -20 7 -20 25 0 18 -5 25 -20 25 -13 0 -20 7
-20 20 0 15 -7 20 -25 20 -18 0 -25 5 -25 20 0 13 -7 20 -20 20 -17 0 -20 7
-20 45 0 41 -2 45 -25 45 -18 0 -25 5 -25 20 0 13 -7 20 -20 20 -15 0 -20 7
-20 25 0 18 -5 25 -20 25 -13 0 -20 7 -20 20 0 15 -7 20 -25 20 -18 0 -25 5
-25 20 0 13 -7 20 -20 20 -15 0 -20 7 -20 25 0 18 -5 25 -20 25 -17 0 -20 7
-20 45 0 41 -2 45 -25 45 -18 0 -25 5 -25 20 0 13 -7 20 -20 20 -13 0 -20 7
-20 20 0 13 -7 20 -20 20 -15 0 -20 7 -20 25 0 20 -5 25 -25 25 -18 0 -25 5
-25 20 0 13 -7 20 -20 20 -13 0 -20 7 -20 20 0 13 -7 20 -20 20 -15 0 -20 7
-20 25 0 20 -5 25 -25 25 -22 0 -25 4 -25 40 0 33 -3 40 -20 40 -15 0 -20 7
-20 25 0 20 -5 25 -25 25 -18 0 -25 5 -25 20 0 13 -7 20 -20 20 -13 0 -20 7
-20 20 0 13 -7 20 -20 20 -15 0 -20 7 -20 25 0 20 -5 25 -25 25 -18 0 -25 5
-25 20 0 13 -7 20 -20 20 -17 0 -20 7 -20 45 0 38 -3 45 -20 45 -13 0 -20 7
-20 20 0 15 -7 20 -25 20 -20 0 -25 5 -25 25 0 18 -5 25 -20 25 -13 0 -20 7
-20 20 0 13 -7 20 -20 20 -13 0 -20 7 -20 20 0 15 -7 20 -25 20 -20 0 -25 5
-25 25 0 18 -5 25 -20 25 -17 0 -20 7 -20 40 0 36 -2 40 -25 40 -20 0 -25 5
-25 25 0 18 -5 25 -20 25 -13 0 -20 7 -20 20 0 13 -7 20 -20 20 -15 0 -20 7
-20 25 l0 25 -110 0 -110 0 0 -1485z"/>
<path d="M250 9525 c0 -63 1 -65 25 -65 24 0 25 -2 25 -65 0 -58 2 -65 20 -65
17 0 20 -7 20 -45 0 -38 3 -45 20 -45 18 0 20 -7 20 -65 0 -63 1 -65 25 -65
23 0 25 -4 25 -45 0 -38 3 -45 20 -45 18 0 20 -7 20 -65 0 -63 1 -65 25 -65
23 0 25 -4 25 -40 0 -33 3 -40 20 -40 17 0 20 -7 20 -45 0 -38 3 -45 20 -45
18 0 20 -7 20 -65 0 -63 1 -65 25 -65 23 0 25 -4 25 -45 0 -38 3 -45 20 -45
18 0 20 -7 20 -65 0 -58 2 -65 20 -65 17 0 20 -7 20 -45 0 -41 2 -45 25 -45
24 0 25 -2 25 -65 0 -58 2 -65 20 -65 17 0 20 -7 20 -40 0 -33 3 -40 20 -40
18 0 20 -7 20 -65 0 -63 1 -65 25 -65 23 0 25 -4 25 -45 0 -38 3 -45 20 -45
18 0 20 -7 20 -65 0 -58 2 -65 20 -65 17 0 20 -7 20 -45 0 -41 2 -45 25 -45
24 0 25 -2 25 -65 0 -58 2 -65 20 -65 17 0 20 -7 20 -45 0 -41 2 -45 25 -45
24 0 25 -2 25 -65 0 -58 2 -65 20 -65 17 0 20 -7 20 -45 0 -38 3 -45 20 -45
17 0 20 -7 20 -40 0 -36 3 -40 25 -40 24 0 25 -2 25 -65 0 -58 2 -65 20 -65
17 0 20 -7 20 -45 0 -38 3 -45 20 -45 18 0 20 -7 20 -65 0 -63 1 -65 25 -65
23 0 25 -4 25 -45 0 -38 3 -45 20 -45 18 0 20 -7 20 -65 0 -58 2 -65 20 -65
17 0 20 -7 20 -45 0 -41 2 -45 25 -45 24 0 25 -2 25 -65 0 -58 2 -65 20 -65
17 0 20 -7 20 -40 0 -33 3 -40 20 -40 18 0 20 -7 20 -70 0 -68 1 -70 25 -70
23 0 25 -4 25 -40 0 -33 3 -40 20 -40 18 0 20 -7 20 -65 0 -63 1 -65 25 -65
20 0 25 -5 25 -25 0 -18 5 -25 20 -25 13 0 20 -7 20 -20 0 -18 7 -20 65 -20
58 0 65 2 65 20 0 13 7 20 20 20 17 0 20 7 20 45 0 41 2 45 25 45 24 0 25 2
25 65 0 58 2 65 20 65 17 0 20 7 20 45 0 38 3 45 20 45 18 0 20 7 20 65 0 63
1 65 25 65 23 0 25 4 25 45 0 38 3 45 20 45 18 0 20 7 20 65 0 58 2 65 20 65
17 0 20 7 20 40 0 36 3 40 25 40 24 0 25 2 25 70 0 63 2 70 20 70 17 0 20 7
20 40 0 36 3 40 25 40 24 0 25 2 25 65 0 58 2 65 20 65 17 0 20 7 20 45 0 38
3 45 20 45 17 0 20 7 20 45 0 41 2 45 25 45 24 0 25 2 25 65 0 58 2 65 20 65
17 0 20 7 20 45 0 38 3 45 20 45 18 0 20 7 20 65 0 63 1 65 25 65 23 0 25 4
25 40 0 33 3 40 20 40 18 0 20 7 20 65 0 58 2 65 20 65 17 0 20 7 20 45 0 41
2 45 25 45 24 0 25 2 25 65 0 58 2 65 20 65 17 0 20 7 20 45 0 41 2 45 25 45
24 0 25 2 25 65 0 58 2 65 20 65 17 0 20 7 20 45 0 38 3 45 20 45 18 0 20 7
20 65 0 63 1 65 25 65 23 0 25 4 25 40 0 33 3 40 20 40 17 0 20 7 20 45 0 38
3 45 20 45 18 0 20 7 20 65 0 63 1 65 25 65 23 0 25 4 25 45 0 38 3 45 20 45
18 0 20 7 20 65 0 58 2 65 20 65 17 0 20 7 20 45 0 41 2 45 25 45 24 0 25 2
25 65 0 58 2 65 20 65 17 0 20 7 20 45 0 38 3 45 20 45 18 0 20 7 20 65 0 63
1 65 25 65 23 0 25 4 25 40 0 33 3 40 20 40 18 0 20 7 20 65 0 63 1 65 25 65
23 0 25 4 25 45 l0 45 -415 0 c-408 0 -415 0 -415 -20 0 -15 -7 -20 -25 -20
-23 0 -25 -4 -25 -45 0 -38 -3 -45 -20 -45 -17 0 -20 -7 -20 -45 0 -38 -3 -45
-20 -45 -18 0 -20 -7 -20 -65 0 -63 -1 -65 -25 -65 -22 0 -25 -4 -25 -40 0
-33 -3 -40 -20 -40 -18 0 -20 -7 -20 -70 0 -63 -2 -70 -20 -70 -18 0 -20 -7
-20 -65 0 -63 -1 -65 -25 -65 -22 0 -25 -4 -25 -40 0 -33 -3 -40 -20 -40 -18
0 -20 -7 -20 -65 0 -63 -1 -65 -25 -65 -23 0 -25 -4 -25 -45 0 -38 -3 -45 -20
-45 -18 0 -20 -7 -20 -65 0 -58 -2 -65 -20 -65 -17 0 -20 -7 -20 -45 0 -41 -2
-45 -25 -45 -24 0 -25 -2 -25 -65 0 -58 -2 -65 -20 -65 -18 0 -20 -7 -20 -65
0 -58 -2 -65 -20 -65 -18 0 -20 -7 -20 -65 0 -63 -1 -65 -25 -65 -23 0 -25 -4
-25 -45 0 -38 -3 -45 -20 -45 -18 0 -20 -7 -20 -65 0 -58 -2 -65 -20 -65 -18
0 -20 -7 -20 -65 0 -63 -1 -65 -25 -65 -23 0 -25 4 -25 45 0 38 -3 45 -20 45
-18 0 -20 7 -20 65 0 58 -2 65 -20 65 -18 0 -20 7 -20 65 0 63 -1 65 -25 65
-23 0 -25 4 -25 45 0 38 -3 45 -20 45 -18 0 -20 7 -20 65 0 63 -1 65 -25 65
-24 0 -25 2 -25 65 0 58 -2 65 -20 65 -18 0 -20 7 -20 65 0 58 -2 65 -20 65
-17 0 -20 7 -20 45 0 41 -2 45 -25 45 -24 0 -25 2 -25 65 0 58 -2 65 -20 65
-17 0 -20 7 -20 40 0 33 -3 40 -20 40 -18 0 -20 7 -20 65 0 63 -1 65 -25 65
-23 0 -25 4 -25 45 0 38 -3 45 -20 45 -18 0 -20 7 -20 65 0 58 -2 65 -20 65
-17 0 -20 7 -20 45 0 41 -2 45 -25 45 -24 0 -25 2 -25 65 0 58 -2 65 -20 65
-17 0 -20 7 -20 45 0 38 -3 45 -20 45 -18 0 -20 7 -20 65 0 63 -1 65 -25 65
-18 0 -25 5 -25 20 0 20 -7 20 -415 20 l-415 0 0 -65z"/>
<path d="M3910 9570 c0 -13 -7 -20 -20 -20 -20 0 -20 -7 -20 -1830 l0 -1830
370 0 370 0 0 1830 0 1830 -150 0 c-143 0 -150 1 -150 20 0 19 -7 20 -200 20
-193 0 -200 -1 -200 -20z"/>
<path d="M6140 9570 c0 -18 -7 -20 -65 -20 -63 0 -65 -1 -65 -25 0 -23 -4 -25
-45 -25 -38 0 -45 -3 -45 -20 0 -17 -7 -20 -45 -20 -38 0 -45 -3 -45 -20 0
-17 -7 -20 -40 -20 -36 0 -40 -2 -40 -25 0 -20 -5 -25 -25 -25 -18 0 -25 -5
-25 -20 0 -13 -7 -20 -20 -20 -13 0 -20 -7 -20 -20 0 -15 -7 -20 -25 -20 -20
0 -25 -5 -25 -25 0 -18 -5 -25 -20 -25 -13 0 -20 -7 -20 -20 0 -13 -7 -20 -20
-20 -17 0 -20 -7 -20 -45 0 -41 -2 -45 -25 -45 -18 0 -25 -5 -25 -20 0 -13 -7
-20 -20 -20 -17 0 -20 -7 -20 -45 0 -38 -3 -45 -20 -45 -18 0 -20 -7 -20 -65
0 -63 -1 -65 -25 -65 l-25 0 0 -110 c0 -103 -1 -110 -20 -110 -19 0 -20 -7
-20 -150 0 -143 1 -150 20 -150 19 0 20 -7 20 -90 0 -89 0 -90 25 -90 23 0 25
-4 25 -40 0 -33 3 -40 20 -40 17 0 20 -7 20 -45 0 -38 3 -45 20 -45 17 0 20
-7 20 -45 0 -41 2 -45 25 -45 18 0 25 -5 25 -20 0 -13 7 -20 20 -20 15 0 20
-7 20 -25 0 -18 5 -25 20 -25 13 0 20 -7 20 -20 0 -15 7 -20 25 -20 18 0 25
-5 25 -20 0 -17 7 -20 45 -20 41 0 45 -2 45 -25 0 -18 5 -25 20 -25 13 0 20
-7 20 -20 0 -17 7 -20 45 -20 38 0 45 -3 45 -20 0 -13 7 -20 20 -20 15 0 20
-7 20 -25 0 -23 4 -25 45 -25 38 0 45 -3 45 -20 0 -17 7 -20 40 -20 33 0 40
-3 40 -20 0 -17 7 -20 45 -20 41 0 45 -2 45 -25 0 -24 2 -25 65 -25 58 0 65
-2 65 -20 0 -18 7 -20 65 -20 58 0 65 -2 65 -20 0 -17 7 -20 45 -20 41 0 45
-2 45 -25 0 -23 4 -25 45 -25 38 0 45 -3 45 -20 0 -13 7 -20 20 -20 15 0 20
-7 20 -25 0 -18 5 -25 20 -25 13 0 20 -7 20 -20 0 -15 7 -20 25 -20 23 0 25
-4 25 -45 0 -38 3 -45 20 -45 19 0 20 -7 20 -105 0 -98 -1 -105 -20 -105 -15
0 -20 -7 -20 -25 0 -20 -5 -25 -25 -25 -22 0 -25 -4 -25 -40 l0 -40 -40 0
c-36 0 -40 -2 -40 -25 0 -23 -4 -25 -45 -25 -38 0 -45 -3 -45 -20 0 -20 -7
-20 -285 -20 -278 0 -285 0 -285 20 0 18 -7 20 -65 20 -63 0 -65 1 -65 25 0
24 -2 25 -65 25 -58 0 -65 2 -65 20 0 17 -7 20 -45 20 -38 0 -45 3 -45 20 0
17 -7 20 -40 20 -36 0 -40 3 -40 25 0 23 -4 25 -45 25 -38 0 -45 3 -45 20 0
17 -7 20 -45 20 l-45 0 0 -85 c0 -78 -2 -85 -20 -85 -19 0 -20 -7 -20 -200 0
-193 -1 -200 -20 -200 -19 0 -20 -7 -20 -110 l0 -110 40 0 c33 0 40 -3 40 -20
0 -18 7 -20 65 -20 58 0 65 -2 65 -20 0 -17 7 -20 45 -20 41 0 45 -2 45 -25 0
-24 2 -25 65 -25 58 0 65 -2 65 -20 0 -19 7 -20 90 -20 83 0 90 -1 90 -20 0
-20 7 -20 410 -20 403 0 410 0 410 20 0 18 7 20 65 20 58 0 65 2 65 20 0 18 7
20 70 20 68 0 70 1 70 25 0 23 4 25 40 25 33 0 40 3 40 20 0 15 7 20 25 20 18
0 25 5 25 20 0 13 7 20 20 20 15 0 20 7 20 25 0 23 4 25 45 25 38 0 45 3 45
20 0 13 7 20 20 20 15 0 20 7 20 25 0 18 5 25 20 25 17 0 20 7 20 40 0 36 3
40 25 40 20 0 25 5 25 25 0 18 5 25 20 25 17 0 20 7 20 40 0 33 3 40 20 40 17
0 20 7 20 45 0 41 2 45 25 45 25 0 25 1 25 90 0 83 1 90 20 90 19 0 20 7 20
260 0 253 -1 260 -20 260 -18 0 -20 7 -20 65 0 63 -1 65 -25 65 -23 0 -25 4
-25 45 0 38 -3 45 -20 45 -13 0 -20 7 -20 20 0 13 -7 20 -20 20 -17 0 -20 7
-20 45 0 41 -2 45 -25 45 -18 0 -25 5 -25 20 0 13 -7 20 -20 20 -13 0 -20 7
-20 20 0 13 -7 20 -20 20 -15 0 -20 7 -20 25 0 20 -5 25 -25 25 -18 0 -25 5
-25 20 0 17 -7 20 -40 20 -33 0 -40 3 -40 20 0 15 -7 20 -25 20 -20 0 -25 5
-25 25 0 18 -5 25 -20 25 -13 0 -20 7 -20 20 0 17 -7 20 -45 20 -41 0 -45 2
-45 25 0 23 -4 25 -45 25 -38 0 -45 3 -45 20 0 17 -7 20 -40 20 -33 0 -40 3
-40 20 0 17 -7 20 -45 20 -41 0 -45 2 -45 25 0 24 -2 25 -65 25 -58 0 -65 2
-65 20 0 17 -7 20 -45 20 -38 0 -45 3 -45 20 0 18 -7 20 -65 20 -63 0 -65 1
-65 25 0 23 -4 25 -45 25 -38 0 -45 3 -45 20 0 13 -7 20 -20 20 -13 0 -20 7
-20 20 0 13 -7 20 -20 20 -15 0 -20 7 -20 25 0 20 -5 25 -25 25 -24 0 -25 2
-25 65 0 58 -2 65 -20 65 -17 0 -20 7 -20 45 0 38 3 45 20 45 18 0 20 7 20 65
0 63 1 65 25 65 23 0 25 4 25 40 0 33 3 40 20 40 15 0 20 7 20 25 0 18 5 25
20 25 13 0 20 7 20 20 0 18 7 20 70 20 63 0 70 2 70 20 0 19 7 20 150 20 143
0 150 -1 150 -20 0 -19 7 -20 110 -20 103 0 110 -1 110 -20 0 -18 7 -20 65
-20 63 0 65 -1 65 -25 0 -24 2 -25 65 -25 58 0 65 -2 65 -20 0 -13 7 -20 20
-20 18 0 20 7 20 85 0 84 0 85 25 85 l25 0 0 175 c0 168 1 175 20 175 19 0 20
7 20 110 l0 110 -45 0 c-38 0 -45 3 -45 20 0 18 -7 20 -85 20 -84 0 -85 0 -85
25 l0 25 -110 0 c-103 0 -110 1 -110 20 0 20 -7 20 -325 20 -318 0 -325 0
-325 -20z"/>
<path d="M18380 9570 c0 -18 -7 -20 -85 -20 -84 0 -85 0 -85 -25 0 -23 -4 -25
-45 -25 -38 0 -45 -3 -45 -20 0 -17 -7 -20 -40 -20 -33 0 -40 -3 -40 -20 0
-15 -7 -20 -25 -20 -20 0 -25 -5 -25 -25 0 -18 -5 -25 -20 -25 -13 0 -20 -7
-20 -20 0 -17 -7 -20 -45 -20 -38 0 -45 -3 -45 -20 0 -13 -7 -20 -20 -20 -17
0 -20 -7 -20 -45 0 -41 -2 -45 -25 -45 -18 0 -25 -5 -25 -20 0 -13 -7 -20 -20
-20 -15 0 -20 -7 -20 -25 0 -18 -5 -25 -20 -25 -17 0 -20 -7 -20 -45 0 -41 -2
-45 -25 -45 -24 0 -25 -2 -25 -65 0 -58 -2 -65 -20 -65 -18 0 -20 -7 -20 -65
0 -58 -2 -65 -20 -65 -20 0 -20 -7 -20 -280 0 -273 0 -280 20 -280 18 0 20 -7
20 -65 0 -58 2 -65 20 -65 15 0 20 -7 20 -25 0 -20 5 -25 25 -25 23 0 25 -4
25 -40 0 -33 3 -40 20 -40 15 0 20 -7 20 -25 0 -18 5 -25 20 -25 13 0 20 -7
20 -20 0 -15 7 -20 25 -20 20 0 25 -5 25 -25 0 -18 5 -25 20 -25 13 0 20 -7
20 -20 0 -15 7 -20 25 -20 18 0 25 -5 25 -20 0 -13 7 -20 20 -20 15 0 20 -7
20 -25 0 -18 5 -25 20 -25 13 0 20 -7 20 -20 0 -17 7 -20 45 -20 38 0 45 -3
45 -20 0 -17 7 -20 45 -20 41 0 45 -2 45 -25 0 -18 5 -25 20 -25 13 0 20 -7
20 -20 0 -18 7 -20 65 -20 58 0 65 -2 65 -20 0 -17 7 -20 45 -20 41 0 45 -2
45 -25 0 -23 4 -25 45 -25 38 0 45 -3 45 -20 0 -18 7 -20 65 -20 58 0 65 -2
65 -20 0 -17 7 -20 40 -20 36 0 40 -2 40 -25 0 -23 4 -25 45 -25 38 0 45 -3
45 -20 0 -17 7 -20 45 -20 41 0 45 -2 45 -25 0 -18 5 -25 20 -25 17 0 20 -7
20 -40 0 -33 3 -40 20 -40 19 0 20 -7 20 -155 0 -148 -1 -155 -20 -155 -13 0
-20 -7 -20 -20 0 -13 -7 -20 -20 -20 -13 0 -20 -7 -20 -20 0 -15 -7 -20 -25
-20 -20 0 -25 -5 -25 -25 0 -22 -4 -25 -40 -25 -33 0 -40 -3 -40 -20 0 -20 -7
-20 -285 -20 -278 0 -285 0 -285 20 0 18 -7 20 -85 20 -84 0 -85 0 -85 25 0
24 -2 25 -65 25 -58 0 -65 2 -65 20 0 17 -7 20 -45 20 -38 0 -45 3 -45 20 0
17 -7 20 -45 20 -41 0 -45 2 -45 25 0 18 -5 25 -20 25 -13 0 -20 7 -20 20 0
18 -7 20 -65 20 l-65 0 0 -195 0 -195 -25 0 -25 0 0 -200 0 -200 45 0 c38 0
45 -3 45 -20 0 -17 7 -20 45 -20 38 0 45 -3 45 -20 0 -18 7 -20 65 -20 63 0
65 -1 65 -25 0 -24 2 -25 65 -25 58 0 65 -2 65 -20 0 -18 7 -20 85 -20 78 0
85 -2 85 -20 0 -19 7 -20 130 -20 l130 0 0 -25 0 -25 155 0 155 0 0 25 0 25
130 0 c123 0 130 1 130 20 0 18 7 20 65 20 58 0 65 2 65 20 0 17 7 20 45 20
41 0 45 2 45 25 0 23 4 25 45 25 38 0 45 3 45 20 0 17 7 20 40 20 33 0 40 3
40 20 0 15 7 20 25 20 20 0 25 5 25 25 0 18 5 25 20 25 13 0 20 7 20 20 0 13
7 20 20 20 15 0 20 7 20 25 0 20 5 25 25 25 18 0 25 5 25 20 0 13 7 20 20 20
13 0 20 7 20 20 0 13 7 20 20 20 17 0 20 7 20 45 0 41 2 45 25 45 23 0 25 4
25 45 0 38 3 45 20 45 18 0 20 7 20 65 0 63 1 65 25 65 25 0 25 1 25 85 0 78
2 85 20 85 19 0 20 7 20 175 0 168 -1 175 -20 175 -19 0 -20 7 -20 90 0 89 0
90 -25 90 -22 0 -25 4 -25 40 0 33 -3 40 -20 40 -17 0 -20 7 -20 45 0 41 -2
45 -25 45 -18 0 -25 5 -25 20 0 13 -7 20 -20 20 -15 0 -20 7 -20 25 0 18 -5
25 -20 25 -13 0 -20 7 -20 20 0 15 -7 20 -25 20 -18 0 -25 5 -25 20 0 13 -7
20 -20 20 -15 0 -20 7 -20 25 0 18 -5 25 -20 25 -13 0 -20 7 -20 20 0 15 -7
20 -25 20 -18 0 -25 5 -25 20 0 13 -7 20 -20 20 -15 0 -20 7 -20 25 0 23 -4
25 -45 25 -38 0 -45 3 -45 20 0 13 -7 20 -20 20 -15 0 -20 7 -20 25 0 23 -4
25 -45 25 -38 0 -45 3 -45 20 0 17 -7 20 -45 20 -38 0 -45 3 -45 20 0 18 -7
20 -65 20 -63 0 -65 1 -65 25 0 23 -4 25 -40 25 -33 0 -40 3 -40 20 0 18 -7
20 -65 20 -58 0 -65 2 -65 20 0 17 -7 20 -45 20 -41 0 -45 2 -45 25 0 23 -4
25 -45 25 -38 0 -45 3 -45 20 0 13 -7 20 -20 20 -13 0 -20 7 -20 20 0 15 -7
20 -25 20 -20 0 -25 5 -25 25 0 18 -5 25 -20 25 -17 0 -20 7 -20 40 0 33 -3
40 -20 40 -19 0 -20 7 -20 110 0 103 1 110 20 110 17 0 20 7 20 45 0 38 3 45
20 45 13 0 20 7 20 20 0 15 7 20 25 20 20 0 25 5 25 25 0 18 5 25 20 25 13 0
20 7 20 20 0 18 7 20 65 20 58 0 65 2 65 20 0 19 7 20 110 20 103 0 110 -1
110 -20 0 -19 7 -20 130 -20 123 0 130 -1 130 -20 0 -19 7 -20 90 -20 89 0 90
0 90 -25 0 -22 4 -25 40 -25 33 0 40 -3 40 -20 0 -15 7 -20 25 -20 18 0 25 5
25 20 0 13 7 20 20 20 19 0 20 7 20 130 0 123 1 130 20 130 19 0 20 7 20 155
l0 155 25 0 c24 0 25 2 25 65 l0 65 -65 0 c-58 0 -65 2 -65 20 0 18 -7 20 -65
20 -63 0 -65 1 -65 25 0 25 -1 25 -90 25 -83 0 -90 1 -90 20 0 20 -7 20 -350
20 -343 0 -350 0 -350 -20z"/>
<path d="M8140 7720 l0 -1830 370 0 370 0 0 1830 0 1830 -370 0 -370 0 0
-1830z"/>
</g>
</svg>
