<svg width="100" height="100" viewBox="0 0 100 100" fill="none" xmlns="http://www.w3.org/2000/svg">
<path d="M90.909 0H9.09097C4.07705 0 0 4.07705 0 9.09097V90.909C0 95.9227 4.07705 100 9.09097 100H90.909C95.9227 100 100 95.9229 100 90.909V9.09097C99.9998 4.07705 95.9227 0 90.909 0ZM95.4544 90.909C95.4544 93.4147 93.4147 95.4544 90.909 95.4544H9.09097C6.58529 95.4544 4.54559 93.4147 4.54559 90.909V22.7273H95.4544V90.909ZM95.4544 18.1817H4.54538V9.09097C4.54538 6.58529 6.58508 4.54559 9.09075 4.54559H90.9088C93.4145 4.54559 95.4542 6.58529 95.4542 9.09097V18.1817H95.4544Z" fill="#143556"/>
<path d="M2.27279 4.54559C3.52802 4.54559 4.54559 3.52802 4.54559 2.27279C4.54559 1.01756 3.52802 0 2.27279 0C1.01756 0 0 1.01756 0 2.27279C0 3.52802 1.01756 4.54559 2.27279 4.54559Z" transform="translate(9.09082 9.0907)" fill="#143556"/>
<path d="M2.27279 4.54559C3.52802 4.54559 4.54559 3.52802 4.54559 2.27279C4.54559 1.01756 3.52802 0 2.27279 0C1.01756 0 0 1.01756 0 2.27279C0 3.52802 1.01756 4.54559 2.27279 4.54559Z" transform="translate(18.1816 9.0907)" fill="#143556"/>
<path d="M2.2728 4.54559C3.52803 4.54559 4.54559 3.52802 4.54559 2.27279C4.54559 1.01756 3.52803 0 2.2728 0C1.01757 0 0 1.01756 0 2.27279C0 3.52802 1.01757 4.54559 2.2728 4.54559Z" transform="translate(27.2734 9.0907)" fill="#143556"/>
<path d="M2.27279 40.909H47.7272C48.9835 40.909 50 39.8925 50 38.6362V2.2728C50 1.01655 48.9835 0 47.7272 0H2.27279C1.01655 0 0 1.01655 0 2.2728V38.6365C0 39.8927 1.01655 40.909 2.27279 40.909ZM4.54538 4.54559H45.4544V36.3637H4.54538V4.54559Z" transform="translate(13.6357 31.818)" fill="#143556"/>
<path d="M6.81817 0C3.05838 0 0 3.05838 0 6.81817V20.4545C0 21.7108 1.01655 22.7273 2.27279 22.7273C3.52904 22.7273 4.54559 21.7108 4.54559 20.4545V18.1817H9.09097V20.4545C9.09097 21.7108 10.1075 22.7273 11.3638 22.7273C12.62 22.7273 13.6366 21.7108 13.6366 20.4545V6.81817C13.6363 3.05838 10.5778 0 6.81817 0ZM9.09075 13.6363H4.54538V6.81817C4.54538 5.56427 5.56406 4.54537 6.81817 4.54537C8.07229 4.54537 9.09097 5.56405 9.09097 6.81817V13.6363H9.09075Z" transform="translate(22.7266 40.9091)" fill="#143556"/>
<path d="M6.81817 0H2.2728C1.01655 0 0 1.01655 0 2.2728V20.4545C0 21.7108 1.01655 22.7273 2.2728 22.7273H6.81817C10.578 22.7273 13.6363 19.6689 13.6363 15.9091V6.81817C13.6363 3.05838 10.578 0 6.81817 0ZM9.09097 15.9091C9.09097 17.163 8.07229 18.1819 6.81817 18.1819H4.54538V4.54559H6.81817C8.07208 4.54559 9.09097 5.56427 9.09097 6.81839V15.9091Z" transform="translate(40.9092 40.9091)" fill="#143556"/>
<path d="M2.27279 4.54559H70.4545C71.7108 4.54559 72.7273 3.52904 72.7273 2.27279C72.7273 1.01655 71.7108 0 70.4545 0H2.27279C1.01655 0.000213068 0 1.01676 0 2.27301C0 3.52926 1.01655 4.54559 2.27279 4.54559Z" transform="translate(13.6357 81.8179)" fill="#143556"/>
<path d="M2.27279 4.54538H15.9091C17.1654 4.54538 18.1819 3.52883 18.1819 2.27258C18.1819 1.01633 17.1654 0 15.9091 0H2.27279C1.01655 0 0 1.01655 0 2.2728C0 3.52904 1.01655 4.54538 2.27279 4.54538Z" transform="translate(68.1816 40.9091)" fill="#143556"/>
<path d="M2.27279 4.54538H15.9091C17.1654 4.54538 18.1819 3.52883 18.1819 2.27258C18.1819 1.01633 17.1654 0 15.9091 0H2.27279C1.01655 0 0 1.01655 0 2.27279C0 3.52904 1.01655 4.54538 2.27279 4.54538Z" transform="translate(68.1816 54.5454)" fill="#143556"/>
<path d="M2.27279 4.54559H15.9091C17.1654 4.54559 18.1819 3.52904 18.1819 2.27279C18.1819 1.01655 17.1654 0 15.9091 0H2.27279C1.01655 0 0 1.01655 0 2.27279C0 3.52925 1.01655 4.54559 2.27279 4.54559Z" transform="translate(68.1816 68.1815)" fill="#143556"/>
</svg>
