<svg width="105" height="105" viewBox="0 0 105 105" fill="none" xmlns="http://www.w3.org/2000/svg">
<path d="M10.5 0C4.70094 0 0 4.70094 0 10.5C0 16.2991 4.70094 21 10.5 21C16.2967 20.9943 20.9943 16.2967 21 10.5C21 4.70094 16.2991 0 10.5 0ZM10.5 17.5C6.63403 17.5 3.5 14.366 3.5 10.5C3.5 6.63403 6.63403 3.5 10.5 3.5C14.366 3.5 17.5 6.63403 17.5 10.5C17.5 14.366 14.366 17.5 10.5 17.5Z" transform="translate(42)" fill="#FFD700"/>
<path d="M22.75 0H22.337L21.9678 0.183749C18.0519 2.13347 13.4481 2.13347 9.53225 0.183749L9.163 0H8.75C3.92 0.0056875 0.0056875 3.92 0 8.75V19.25C0 22.1495 2.35047 24.5 5.25 24.5H26.25C29.1495 24.5 31.5 22.1495 31.5 19.25V8.75C31.4943 3.92 27.58 0.0056875 22.75 0ZM28 19.25C28 20.2164 27.2164 21 26.25 21H5.25C4.28356 21 3.5 20.2164 3.5 19.25V8.75C3.50044 5.9955 5.62953 3.70956 8.37725 3.514C13.053 5.684 18.4472 5.684 23.1228 3.514C25.8703 3.70956 27.9996 5.9955 28 8.75V19.25Z" transform="translate(36.75 22.75)" fill="#F4F4F4"/>
<path d="M10.5 0C4.70094 0 0 4.70094 0 10.5C0 16.2991 4.70094 21 10.5 21C16.2991 21 21 16.2991 21 10.5C20.9943 4.70334 16.2967 0.0056875 10.5 0ZM10.5 17.5C6.63403 17.5 3.5 14.366 3.5 10.5C3.5 6.63403 6.63403 3.5 10.5 3.5C14.366 3.5 17.5 6.63403 17.5 10.5C17.5 14.366 14.366 17.5 10.5 17.5Z" transform="translate(78.75 57.75)" fill="#FFD700"/>
<path d="M22.75 0H22.337L21.9678 0.174997C18.0519 2.1245 13.4481 2.1245 9.53225 0.174997L9.163 0H8.75C3.92 0.0056875 0.0056875 3.92 0 8.75V19.25C0 22.1495 2.35047 24.5 5.25 24.5H26.25C29.1495 24.5 31.5 22.1495 31.5 19.25V8.75C31.4943 3.92 27.58 0.0056875 22.75 0ZM28 19.25C28 20.2164 27.2164 21 26.25 21H5.25C4.28356 21 3.5 20.2164 3.5 19.25V8.75C3.50044 5.9955 5.62953 3.70956 8.37725 3.514C13.053 5.684 18.447 5.684 23.1228 3.514C25.8705 3.70956 27.9996 5.9955 28 8.75V19.25Z" transform="translate(73.5 80.5)" fill="#F4F4F4"/>
<path d="M10.5 0C4.70094 0 0 4.70094 0 10.5C0 16.2991 4.70094 21 10.5 21C16.2991 21 21 16.2991 21 10.5C20.9943 4.70334 16.2967 0.0056875 10.5 0ZM10.5 17.5C6.63403 17.5 3.5 14.366 3.5 10.5C3.5 6.63403 6.63403 3.5 10.5 3.5C14.366 3.5 17.5 6.63403 17.5 10.5C17.5 14.366 14.366 17.5 10.5 17.5Z" transform="translate(5.25 57.75)" fill="#FFD700"/>
<path d="M22.75 0H22.337L21.9678 0.174997C18.0519 2.1245 13.4481 2.1245 9.53225 0.174997L9.163 0H8.75C3.92 0.0056875 0.0056875 3.92 0 8.75V19.25C0 22.1495 2.35047 24.5 5.25 24.5H26.25C29.1495 24.5 31.5 22.1495 31.5 19.25V8.75C31.4943 3.92 27.58 0.0056875 22.75 0ZM28 19.25C28 20.2164 27.2164 21 26.25 21H5.25C4.28356 21 3.5 20.2164 3.5 19.25V8.75C3.50044 5.9955 5.62953 3.70956 8.37725 3.514C13.053 5.684 18.447 5.684 23.1228 3.514C25.8705 3.70956 27.9996 5.9955 28 8.75V19.25Z" transform="translate(0 80.5)" fill="#F4F4F4"/>
<path d="M34.8632 3.12386C34.8623 3.1219 34.8614 3.11992 34.8605 3.11774C34.4816 2.22852 33.4537 1.81486 32.5647 2.19374C24.6624 5.50561 15.8862 6.1098 7.60449 3.91224L9.24249 3.43099C10.1704 3.1593 10.7024 2.18718 10.4307 1.25924C10.1591 0.331305 9.18693 -0.200697 8.259 0.0709908L1.259 2.12374C1.23275 2.12374 1.21349 2.15349 1.18899 2.16224C1.0269 2.22262 0.874651 2.30705 0.737495 2.41249C0.676682 2.4453 0.618275 2.48206 0.562494 2.52274C0.377869 2.68746 0.231524 2.89046 0.133742 3.11774C0.0388049 3.34655 -0.00647335 3.59286 0.0007454 3.84049C0.0434016 4.0774 0.101805 4.31124 0.175743 4.54049C0.186243 4.56499 0.175746 4.59299 0.194996 4.61749L3.695 11.3147C4.14256 12.172 5.20021 12.5043 6.05749 12.0567C6.91477 11.6092 7.24706 10.5515 6.79949 9.69424L5.37499 6.97124C14.7843 9.79968 24.8864 9.24996 33.9332 5.41724C34.8231 5.04077 35.2396 4.01396 34.8632 3.12386Z" transform="translate(34.9995 85.749)" fill="#F4F4F4"/>
<path d="M32.7378 32.3143C32.0544 31.6311 30.9466 31.6311 30.2633 32.3143L27.787 34.7905C26.338 19.4627 16.6065 6.16139 2.43651 0.140515C1.54729 -0.23836 0.51939 0.175296 0.140515 1.06452C-0.23836 1.95373 0.175296 2.98164 1.06452 3.36052C13.7761 8.76298 22.6123 20.5694 24.2118 34.2883L22.2378 32.3143C21.5426 31.6427 20.4348 31.662 19.7633 32.3571C19.1083 33.0353 19.1083 34.1104 19.7633 34.7888L25.0133 40.0388C25.6958 40.723 26.8039 40.7245 27.4882 40.0418C27.4893 40.0407 27.4904 40.0396 27.4913 40.0388L32.7413 34.7888C33.4235 34.1045 33.422 32.9968 32.7378 32.3143Z" transform="translate(66.4995 13.6985)" fill="#F4F4F4"/>
<path d="M27.9493 4.62383C27.9436 4.52168 27.9285 4.4204 27.9038 4.32108C27.9038 4.30533 27.8845 4.29483 27.8775 4.27733C27.8705 4.25983 27.8775 4.24758 27.8775 4.23358C27.8298 4.14849 27.7747 4.06755 27.713 3.99208C27.6564 3.88949 27.5894 3.7928 27.5135 3.70333C27.41 3.61168 27.2954 3.53358 27.1723 3.47058C27.1108 3.4183 27.0452 3.37083 26.9763 3.32883L19.9763 0.131583C19.0822 -0.23548 18.0598 0.191739 17.6927 1.08577C17.3456 1.93124 17.7076 2.90161 18.5238 3.31308L22.148 4.97033C8.50391 12.2724 -0.00983522 26.4953 8.52694e-06 41.9706C8.52694e-06 42.937 0.783571 43.7206 1.75001 43.7206C2.71645 43.7206 3.50001 42.937 3.50001 41.9706C3.49126 28.344 10.6971 15.7311 22.4403 8.81858L21.175 11.4628C20.7579 12.3328 21.1234 13.3762 21.9923 13.7956C22.2283 13.9109 22.4873 13.9708 22.75 13.9706C23.422 13.9697 24.0341 13.5841 24.325 12.9783L27.825 5.67558C27.825 5.65808 27.825 5.63883 27.839 5.62133C27.8845 5.50168 27.9162 5.37721 27.9335 5.25033C27.9635 5.15605 27.9858 5.05958 28 4.96158C27.9941 4.84761 27.9773 4.73452 27.9493 4.62383Z" transform="translate(10.5 10.5294)" fill="#F4F4F4"/>
</svg>
