<svg width="215" height="215" viewBox="0 0 215 215" fill="none" xmlns="http://www.w3.org/2000/svg">
<path d="M108.382 107.5C108.382 86.5423 122.333 74.1606 139.862 74.1606C151.905 74.1606 162.277 78.5664 168.361 89.6384L154.056 97.1398C150.715 89.9943 144.99 88.4462 142.128 88.4462C131.52 88.4462 127.699 96.6635 127.699 107.5C127.699 118.339 132.234 126.555 142.128 126.555C147.855 126.555 152.386 124.409 155.363 117.263L168.724 124.054C163.001 134.172 152.624 140.839 140.463 140.839C121.498 140.842 108.382 128.818 108.382 107.5ZM78.3577 140.842C90.5179 140.842 100.897 134.174 106.618 124.054L93.2646 117.265C90.2809 124.409 85.7492 126.555 80.0277 126.555C70.1279 126.555 65.5986 118.341 65.5986 107.502C65.5986 96.6685 69.4166 88.4482 80.0277 88.4482C82.8869 88.4482 88.6104 89.9963 91.9535 97.1418L106.256 89.6404C100.178 78.5664 89.8006 74.1631 77.7578 74.1631C60.2286 74.1631 46.2774 86.5452 46.2774 107.502C46.2799 128.818 59.3898 140.842 78.3577 140.842ZM31.5544 183.198C10.905 162.575 0 136.069 0 107.5C0 79.2273 11.2015 52.1332 31.8463 31.2199C51.9059 10.9005 77.8608 0 107.352 0C136.844 0 163.388 10.9005 184.038 31.5139C204.39 51.8393 215 78.3455 215 107.5C215 136.955 204.39 163.163 184.33 182.899C163.094 203.807 135.668 215 107.352 215C79.041 215 52.1973 203.807 31.5544 183.198ZM19.4597 107.5C19.4597 130.477 28.8986 152.562 45.7061 169.355C62.517 186.139 84.3495 195.268 107.649 195.268C130.652 195.268 153.068 186.139 170.475 169.056C186.982 152.857 195.539 131.65 195.539 107.5C195.539 83.6451 186.693 61.8535 170.176 45.3551C153.361 28.5712 131.838 19.4412 107.65 19.4412C83.4658 19.4412 62.2256 28.2772 45.7086 45.0611C28.9011 62.1449 19.4597 84.2339 19.4597 107.5Z" fill="#143556"/>
</svg>
