<svg width="111" height="105" viewBox="0 0 111 105" fill="none" xmlns="http://www.w3.org/2000/svg">
<path d="M31.1882 8.13916C29.2684 6.72702 29.0622 4.6055 29.0622 4.6055L28.3418 0H5.38186L4.65917 4.60218C4.65917 4.60218 4.45855 6.72592 2.53765 8.13805C0.617855 9.55018 -0.89736 10.7628 0.617856 10.969C2.07765 11.1663 15.8476 10.9867 16.8629 10.969C17.8805 10.9867 31.6471 11.1663 33.1058 10.969C34.6199 10.765 33.1036 9.55462 31.1882 8.13916Z" transform="translate(38.5583 93.9392)" fill="#F4F4F4"/>
<path d="M1.44525 11.3397C7.57927 11.292 8.34298 9.81335 10.3426 3.65494C14.0303 -6.06372 30.6367 6.19989 20.345 10.4562C10.0533 14.7148 -4.68877 11.3873 1.44525 11.3397Z" transform="translate(28.112 53.9491)" fill="#FFD700"/>
<path d="M44.8226 1.24171C41.8432 -1.15692 36.914 0.0246619 33.8071 3.87976L2.33893 48.5892C-0.767985 52.4432 -0.752467 51.7072 2.22365 54.1036C5.19977 56.5022 4.48262 56.674 7.58954 52.82L44.5843 12.5654C47.6912 8.70806 47.7999 3.63923 44.8226 1.24171ZM36.73 6.59319C36.73 6.59319 36.2689 6.05782 34.736 4.8319C37.0348 1.07766 41.5528 1.766 41.5528 1.766C37.2698 4.29542 36.73 6.59319 36.73 6.59319Z" transform="translate(47.6311)" fill="#F4F4F4"/>
<path d="M106.409 0H92.5712L86.4582 6.65055H104.193V59.8549H6.65166V6.65055H63.3919L68.0772 0H4.4337C1.98519 0 0 1.98519 0 4.4337V68.7223C0 71.1708 1.98519 73.156 4.4337 73.156H106.409C108.857 73.156 110.842 71.1708 110.842 68.7223V4.4337C110.842 1.98519 108.857 0 106.409 0Z" transform="translate(0 16.3495)" fill="#F4F4F4"/>
</svg>
