<svg width="105" height="105" viewBox="0 0 105 105" fill="none" xmlns="http://www.w3.org/2000/svg">
<path d="M92.5414 72.7122C109.153 56.1003 109.153 29.0707 92.5414 12.4589C75.9294 -4.15296 48.8996 -4.15296 32.288 12.4589C18.195 26.5518 16.0606 47.5115 25.8794 63.8787C25.8794 63.8787 26.5847 65.0613 25.6322 66.0138C20.1984 71.4474 3.8953 87.7508 3.8953 87.7508C-0.431297 92.077 -1.46162 98.1266 2.37519 101.964L3.0358 102.624C6.87295 106.461 12.923 105.432 17.2492 101.105C17.2492 101.105 33.5179 84.8364 38.9411 79.4139C39.9389 78.4157 41.1218 79.121 41.1218 79.121C57.4885 88.9391 78.4484 86.805 92.5414 72.7122ZM40.1544 64.8461C27.8798 52.5717 27.8802 32.6 40.1544 20.3256C52.4289 8.05147 72.4008 8.05113 84.675 20.3256C96.9495 32.5997 96.9495 52.5717 84.675 64.8461C72.4004 77.1202 52.4286 77.1202 40.1544 64.8461Z" fill="#F4F4F4"/>
<path d="M23.2857 0C10.4253 0 0 12.8265 0 14.9219C0 16.9555 10.425 29.8435 23.2857 29.8435C36.1461 29.8435 46.5714 17.0137 46.5714 14.9219C46.5714 12.8336 36.1465 0 23.2857 0ZM23.2857 25.5417C17.4201 25.5417 12.6656 20.7865 12.6656 14.9216C12.6656 9.05666 17.4204 4.30154 23.2857 4.30154C29.151 4.30154 33.9055 9.05633 33.9055 14.9216C33.9055 20.7869 29.151 25.5417 23.2857 25.5417Z" transform="translate(39.2598 27.8822)" fill="#F4F4F4"/>
<path d="M5.41003 10.82C8.3979 10.82 10.8201 8.39783 10.8201 5.40998C10.8201 2.42213 8.3979 0 5.41003 0C2.42215 0 0 2.42213 0 5.40998C0 8.39783 2.42215 10.82 5.41003 10.82Z" transform="translate(57.1354 37.3942)" fill="#FFD700"/>
</svg>
