<svg width="89" height="105" viewBox="0 0 89 105" fill="none" xmlns="http://www.w3.org/2000/svg">
<path d="M69.3172 43.9835H68.7783V30.077C68.7783 22.0225 65.6246 14.4512 59.898 8.75725C54.2138 3.1057 46.693 0 38.703 0C38.6441 0 38.5848 0.000205078 38.5258 0.000410156C22.0379 0.0951563 8.62415 13.7279 8.62415 30.3901V37.8388C8.62415 38.7319 9.34807 39.4558 10.2412 39.4558H18.8653C19.7585 39.4558 20.4824 38.7319 20.4824 37.8388V30.3298C20.4824 20.2414 28.5746 11.9554 38.5211 11.8591C43.4187 11.8207 48.0287 13.6863 51.514 17.138C54.9999 20.5905 56.9198 25.1854 56.9198 30.077V43.9835H8.0852C3.62681 43.9835 0 47.6105 0 52.0687V103.383C0 104.276 0.723925 105 1.61704 105H75.7854C76.6785 105 77.4024 104.276 77.4024 103.383V52.0687C77.4024 47.6105 73.7756 43.9835 69.3172 43.9835ZM53.7897 14.8401C49.6863 10.7762 44.2528 8.56283 38.4899 8.62518C26.7773 8.73879 17.2485 18.4753 17.2485 30.3298V36.2217H11.8584V30.3901C11.8584 15.501 23.8297 3.31919 38.5444 3.23449C38.5975 3.23429 38.6494 3.23408 38.7025 3.23408C45.8321 3.23408 52.5447 6.00653 57.6179 11.0506C62.7293 16.1329 65.5444 22.89 65.5444 30.077V43.9835H60.1543V30.077C60.1539 24.3157 57.8938 18.9045 53.7897 14.8401ZM74.1684 101.766H3.23408V52.0687C3.23408 49.3937 5.41017 47.2176 8.0852 47.2176H58.542H67.1612H69.3172C71.9923 47.2176 74.1684 49.3937 74.1684 52.0687V101.766Z" transform="translate(11.2114)" fill="#F4F4F4"/>
<path d="M20.062 21.8148C24.7714 20.5287 28.2446 16.2153 28.2446 11.1037C28.2446 4.98114 23.2635 0 17.1408 0C11.0182 0 6.03709 4.98114 6.03709 11.1037C6.03709 16.2153 9.51029 20.5287 14.2197 21.8148C6.15563 23.2058 0 30.2459 0 38.7013V47.3255C0 48.2186 0.723925 48.9425 1.61704 48.9425H32.6642C33.5573 48.9425 34.2813 48.2186 34.2813 47.3255V38.7013C34.2817 30.2459 28.1261 23.2058 20.062 21.8148ZM9.27138 11.1035C9.27138 6.7643 12.8018 3.23387 17.141 3.23387C21.4803 3.23387 25.0107 6.7643 25.0107 11.1035C25.0107 15.4428 21.4803 18.9732 17.141 18.9732C12.8018 18.9732 9.27138 15.443 9.27138 11.1035ZM31.0476 45.7084H3.23449V38.7013C3.23449 31.0332 9.47297 24.7948 17.141 24.7948C24.8091 24.7948 31.0476 31.0332 31.0476 38.7013V45.7084Z" transform="translate(32.7717 50.0206)" fill="#F4F4F4"/>
<path d="M1.61704 0C0.723922 0 0 0.723928 0 1.61704V23.1775C0 24.0706 0.723922 24.7946 1.61704 24.7946C2.51015 24.7946 3.23408 24.0706 3.23408 23.1775V1.61704C3.23408 0.723928 2.50995 0 1.61704 0Z" transform="translate(76.7556 55.1951)" fill="#F4F4F4"/>
<path d="M1.61704 0C0.723922 0 0 0.723922 0 1.61704V10.2412C0 11.1343 0.723922 11.8582 1.61704 11.8582C2.51015 11.8582 3.23408 11.1343 3.23408 10.2412V1.61704C3.23408 0.723922 2.50995 0 1.61704 0Z" transform="translate(76.7556 82.7927)" fill="#F4F4F4"/>
<path d="M8.32515 0H1.61704C0.723925 0 0 0.723928 0 1.61704C0 2.51016 0.723925 3.23408 1.61704 3.23408H8.32515C9.21826 3.23408 9.94219 2.51016 9.94219 1.61704C9.94219 0.723928 9.21806 0 8.32515 0Z" transform="translate(0 35.9512)" fill="#FFD700"/>
<path d="M7.0289 4.74228L2.7602 0.473577C2.12876 -0.157859 1.10481 -0.157859 0.473577 0.473577C-0.157859 1.10501 -0.157859 2.12897 0.473577 2.7604L4.74228 7.0291C5.05789 7.34472 5.47195 7.50283 5.88559 7.50283C6.29923 7.50283 6.71328 7.34492 7.0289 7.0291C7.66033 6.39767 7.66033 5.37371 7.0289 4.74228Z" transform="translate(4.31232 26.194)" fill="#FFD700"/>
<path d="M7.0289 0.473577C6.39746 -0.157859 5.37351 -0.157859 4.74228 0.473577L0.473577 4.74228C-0.157859 5.37371 -0.157859 6.39767 0.473577 7.0289C0.789192 7.34472 1.20324 7.50263 1.61689 7.50263C2.03053 7.50263 2.44458 7.34472 2.7602 7.0289L7.0289 2.7602C7.66054 2.12917 7.66054 1.10522 7.0289 0.473577Z" transform="translate(4.26904 41.4397)" fill="#FFD700"/>
</svg>
