<svg width="99" height="86" viewBox="0 0 99 86" fill="none" xmlns="http://www.w3.org/2000/svg">
<path d="M0 18.4286V86H99V0H0V18.4286ZM86.625 6.14286H92.8125V12.2857H86.625V6.14286ZM6.1875 18.4286H92.8125V79.8571H6.1875V18.4286Z" fill="#143556"/>
<path d="M0 0H12.375V6.14286H0V0Z" transform="translate(18.5625 30.7142)" fill="#143556"/>
<path d="M0 0H43.3125V6.14286H0V0Z" transform="translate(37.125 30.7142)" fill="#143556"/>
<path d="M0 0H12.375V6.14286H0V0Z" transform="translate(18.5625 43)" fill="#143556"/>
<path d="M0 0H43.3125V6.14286H0V0Z" transform="translate(37.125 43)" fill="#143556"/>
<path d="M0 0H12.375V6.14286H0V0Z" transform="translate(18.5625 55.2858)" fill="#143556"/>
<path d="M0 0H43.3125V6.14286H0V0Z" transform="translate(37.125 55.2858)" fill="#143556"/>
</svg>
