<svg width="100" height="100" viewBox="0 0 100 100" fill="none" xmlns="http://www.w3.org/2000/svg">
<path d="M95 0H5C2.23848 0 0 2.23848 0 5V80C0 82.7613 2.23848 85 5 85H40V96.6666H25C24.0795 96.6666 23.3334 97.4127 23.3334 98.3332C23.3334 99.2537 24.0795 100 25 100H75C75.9205 100 76.6666 99.2539 76.6666 98.3334C76.6666 97.4129 75.9205 96.6668 75 96.6668H43.3334V85H56.6668V90C56.6668 90.9205 57.4129 91.6666 58.3334 91.6666C59.2539 91.6666 60 90.9205 60 90V85H95C97.7613 85 100 82.7615 100 80V5C100 2.23848 97.7615 0 95 0ZM96.6666 80C96.6666 80.9205 95.9205 81.6666 95 81.6666H5C4.07949 81.6666 3.3334 80.9205 3.3334 80V71.6666H96.6668V80H96.6666ZM96.6666 68.3334H3.3334V5C3.3334 4.07949 4.07949 3.3334 5 3.3334H95C95.9205 3.3334 96.6666 4.07949 96.6666 5V68.3334Z" fill="#143556"/>
<path d="M73.3334 0H3.3334C1.49238 0 0 1.49238 0 3.3334V38.3334C0 40.1744 1.49238 41.6668 3.3334 41.6668H63.3334C64.2539 41.6668 65 40.9207 65 40.0002C65 39.0797 64.2539 38.3336 63.3334 38.3336H3.3334V3.33359H73.3334V40C73.3334 40.9205 74.0795 41.6666 75 41.6666C75.9205 41.6666 76.6666 40.9205 76.6666 40V3.3334C76.6668 1.49238 75.1744 0 73.3334 0Z" transform="translate(11.667 15)" fill="#143556"/>
<path d="M8.3332 14.9535C12.3422 14.5053 15.2783 10.9664 14.9793 6.94374C14.6803 2.92109 11.2525 -0.144541 7.22149 0.00526338C3.19043 0.155068 -0.000195304 3.4664 8.96648e-09 7.50038C8.96648e-09 8.42089 0.746095 9.16698 1.6666 9.16698C2.58711 9.16698 3.3332 8.42089 3.3332 7.50038C3.3332 5.19921 5.19863 3.33378 7.4998 3.33378C9.80098 3.33378 11.6664 5.19921 11.6664 7.50038C11.6664 9.80155 9.80098 11.667 7.4998 11.667H6.66641C5.7459 11.667 4.99981 12.4131 4.99981 13.3336V16.6668C4.99981 17.5873 5.7459 18.3334 6.66641 18.3334C7.58691 18.3334 8.33301 17.5871 8.33301 16.6668V14.9535H8.3332Z" transform="translate(21.667 23.3333)" fill="#143556"/>
<path d="M0.483398 0.483429C-0.161133 1.14066 -0.161133 2.19281 0.483398 2.85003C1.13574 3.49691 2.18848 3.49417 2.83711 2.84359C3.48594 2.193 3.48594 1.14026 2.83711 0.489679C2.18848 -0.160712 1.13574 -0.163641 0.483398 0.483429Z" transform="translate(26.667 45)" fill="#143556"/>
<path d="M24.9998 1.6666C24.9998 0.746095 24.2535 0 23.3332 0H1.6666C0.746095 0 0 0.74629 0 1.6666C0 2.58711 0.746095 3.3332 1.6666 3.3332H23.3332C24.2537 3.3332 24.9998 2.58711 24.9998 1.6666Z" transform="translate(41.667 28.3334)" fill="#143556"/>
<path d="M6.6666 0H1.66661C0.746098 0 0 0.74629 0 1.6666C0 2.58711 0.746098 3.3332 1.66661 3.3332H6.6666C7.58711 3.3332 8.33321 2.58692 8.33321 1.6666C8.3334 0.746095 7.58711 0 6.6666 0Z" transform="translate(70 28.3334)" fill="#143556"/>
<path d="M13.3332 0H1.6666C0.746095 0 0 0.746095 0 1.6666C0 2.58711 0.746095 3.3332 1.6666 3.3332H13.3332C14.2537 3.3332 14.9998 2.58711 14.9998 1.6666C14.9998 0.746095 14.2537 0 13.3332 0Z" transform="translate(41.667 35)" fill="#143556"/>
<path d="M16.6666 0H1.6666C0.746092 0 0 0.746095 0 1.6666C0 2.58711 0.746092 3.3332 1.6666 3.3332H16.6666C17.5871 3.3332 18.3332 2.58711 18.3332 1.6666C18.3332 0.746095 17.5871 0 16.6666 0Z" transform="translate(60 35)" fill="#143556"/>
<path d="M13.3332 0H1.6666C0.746095 0 0 0.746095 0 1.6666C0 2.58711 0.746095 3.3332 1.6666 3.3332H13.3332C14.2537 3.3332 14.9998 2.58711 14.9998 1.6666C14.9998 0.746095 14.2537 0 13.3332 0Z" transform="translate(41.667 41.6666)" fill="#143556"/>
<path d="M1.6666 0C0.746092 0 0 0.746095 0 1.6666C0 2.58711 0.746092 3.3332 1.6666 3.3332H8.3332C9.25371 3.3332 9.9998 2.58711 9.9998 1.6666C9.9998 0.746095 9.25371 0 8.3332 0H1.6666Z" transform="translate(60 41.6666)" fill="#143556"/>
<path d="M3.3332 0H1.6666C0.746092 0 0 0.746095 0 1.6666C0 2.58711 0.746092 3.3332 1.6666 3.3332H3.3332C4.25371 3.3332 4.9998 2.58711 4.9998 1.6666C4.9998 0.746095 4.25371 0 3.3332 0Z" transform="translate(73.333 41.6666)" fill="#143556"/>
</svg>
